<svg xmlns="http://www.w3.org/2000/svg" id="pcb-stackup_bottom" fill-rule="evenodd" stroke-width="0" stroke-linecap="round" stroke-linejoin="round" xmlns:xlink="http://www.w3.org/1999/xlink" clip-rule="evenodd" viewBox="17000 -29000 13000 11000"><defs><style>.pcb-stackup_fr4 {color: #4D542C;} .pcb-stackup_cu {color: lightgrey;} .pcb-stackup_cf {color: goldenrod;} .pcb-stackup_sm {color: #004400; opacity: 0.9;} .pcb-stackup_ss {color: white;} .pcb-stackup_sp {color: #000000; opacity: 0;} .pcb-stackup_out {color: black;}</style><path id="Sk6UpikOf_pad-11" d="M-863.6-1016H863.6v2032H-863.6z"/><rect id="Sk6UpikOf_pad-12" width="1727.2" height="1727.2" x="-863.6" y="-863.6" rx="863.6" ry="863.6"/><path id="Sk6UpikOf_pad-13" d="M-300-200h600v400h-600z"/><path id="Sk6UpikOf_pad-14" d="M-300-250h600v500h-600z"/><path id="Sk6UpikOf_pad-15" d="M-200-300h400v600h-400z"/><path id="Sk6UpikOf_pad-16" d="M-375-150h750v300h-750z"/><path id="Sk6UpikOf_pad-17" d="M-150-375h300v750h-300z"/><path id="Sk6UpikOf_pad-18" d="M-800-800H800V800H-800z"/><circle id="Sk6UpikOf_pad-19" r="300"/><path id="Sk6UpikOf_pad-11" d="M-863.6-1016H863.6v2032H-863.6z"/><rect id="Sk6UpikOf_pad-12" width="1727.2" height="1727.2" x="-863.6" y="-863.6" rx="863.6" ry="863.6"/><path id="Sk6UpikOf_pad-13" d="M-300-200h600v400h-600z"/><path id="Sk6UpikOf_pad-14" d="M-300-250h600v500h-600z"/><path id="Sk6UpikOf_pad-15" d="M-200-300h400v600h-400z"/><path id="Sk6UpikOf_pad-16" d="M-375-150h750v300h-750z"/><path id="Sk6UpikOf_pad-17" d="M-150-375h300v750h-300z"/><path id="Sk6UpikOf_pad-18" d="M-800-800H800V800H-800z"/><circle id="Sk6UpikOf_pad-19" r="300"/><path id="Sk6UpikOf_pad-11" d="M-863.6-1016H863.6v2032H-863.6z"/><rect id="Sk6UpikOf_pad-12" width="1727.2" height="1727.2" x="-863.6" y="-863.6" rx="863.6" ry="863.6"/><path id="Sk6UpikOf_pad-13" d="M-300-200h600v400h-600z"/><path id="Sk6UpikOf_pad-14" d="M-300-250h600v500h-600z"/><path id="Sk6UpikOf_pad-15" d="M-200-300h400v600h-400z"/><path id="Sk6UpikOf_pad-16" d="M-375-150h750v300h-750z"/><path id="Sk6UpikOf_pad-17" d="M-150-375h300v750h-300z"/><path id="Sk6UpikOf_pad-18" d="M-800-800H800V800H-800z"/><circle id="Sk6UpikOf_pad-19" r="300"/><path id="Sk6UpikOf_pad-11" d="M-863.6-1016H863.6v2032H-863.6z"/><rect id="Sk6UpikOf_pad-12" width="1727.2" height="1727.2" x="-863.6" y="-863.6" rx="863.6" ry="863.6"/><path id="Sk6UpikOf_pad-13" d="M-300-200h600v400h-600z"/><path id="Sk6UpikOf_pad-14" d="M-300-250h600v500h-600z"/><path id="Sk6UpikOf_pad-15" d="M-200-300h400v600h-400z"/><path id="Sk6UpikOf_pad-16" d="M-375-150h750v300h-750z"/><path id="Sk6UpikOf_pad-17" d="M-150-375h300v750h-300z"/><path id="Sk6UpikOf_pad-18" d="M-800-800H800V800H-800z"/><circle id="Sk6UpikOf_pad-19" r="300"/><path id="BJZpL6o1dG_pad-11" d="M-863.6-1016H863.6v2032H-863.6z"/><rect id="BJZpL6o1dG_pad-12" width="1727.2" height="1727.2" x="-863.6" y="-863.6" rx="863.6" ry="863.6"/><path id="BJZpL6o1dG_pad-13" d="M-300-200h600v400h-600z"/><path id="BJZpL6o1dG_pad-14" d="M-300-250h600v500h-600z"/><path id="BJZpL6o1dG_pad-15" d="M-200-300h400v600h-400z"/><path id="BJZpL6o1dG_pad-16" d="M-375-150h750v300h-750z"/><path id="BJZpL6o1dG_pad-17" d="M-150-375h300v750h-300z"/><path id="BJZpL6o1dG_pad-18" d="M-480-480h960v960h-960z"/><path id="Sk6UpikOf_pad-11" d="M-863.6-1016H863.6v2032H-863.6z"/><rect id="Sk6UpikOf_pad-12" width="1727.2" height="1727.2" x="-863.6" y="-863.6" rx="863.6" ry="863.6"/><path id="Sk6UpikOf_pad-13" d="M-300-200h600v400h-600z"/><path id="Sk6UpikOf_pad-14" d="M-300-250h600v500h-600z"/><path id="Sk6UpikOf_pad-15" d="M-200-300h400v600h-400z"/><path id="Sk6UpikOf_pad-16" d="M-375-150h750v300h-750z"/><path id="Sk6UpikOf_pad-17" d="M-150-375h300v750h-300z"/><path id="Sk6UpikOf_pad-18" d="M-800-800H800V800H-800z"/><circle id="Sk6UpikOf_pad-19" r="300"/><path id="Sk6UpikOf_pad-11" d="M-863.6-1016H863.6v2032H-863.6z"/><rect id="Sk6UpikOf_pad-12" width="1727.2" height="1727.2" x="-863.6" y="-863.6" rx="863.6" ry="863.6"/><path id="Sk6UpikOf_pad-13" d="M-300-200h600v400h-600z"/><path id="Sk6UpikOf_pad-14" d="M-300-250h600v500h-600z"/><path id="Sk6UpikOf_pad-15" d="M-200-300h400v600h-400z"/><path id="Sk6UpikOf_pad-16" d="M-375-150h750v300h-750z"/><path id="Sk6UpikOf_pad-17" d="M-150-375h300v750h-300z"/><path id="Sk6UpikOf_pad-18" d="M-800-800H800V800H-800z"/><circle id="Sk6UpikOf_pad-19" r="300"/><path id="Sk6UpikOf_pad-11" d="M-863.6-1016H863.6v2032H-863.6z"/><rect id="Sk6UpikOf_pad-12" width="1727.2" height="1727.2" x="-863.6" y="-863.6" rx="863.6" ry="863.6"/><path id="Sk6UpikOf_pad-13" d="M-300-200h600v400h-600z"/><path id="Sk6UpikOf_pad-14" d="M-300-250h600v500h-600z"/><path id="Sk6UpikOf_pad-15" d="M-200-300h400v600h-400z"/><path id="Sk6UpikOf_pad-16" d="M-375-150h750v300h-750z"/><path id="Sk6UpikOf_pad-17" d="M-150-375h300v750h-300z"/><path id="Sk6UpikOf_pad-18" d="M-800-800H800V800H-800z"/><circle id="Sk6UpikOf_pad-19" r="300"/><path id="Sk6UpikOf_pad-11" d="M-863.6-1016H863.6v2032H-863.6z"/><rect id="Sk6UpikOf_pad-12" width="1727.2" height="1727.2" x="-863.6" y="-863.6" rx="863.6" ry="863.6"/><path id="Sk6UpikOf_pad-13" d="M-300-200h600v400h-600z"/><path id="Sk6UpikOf_pad-14" d="M-300-250h600v500h-600z"/><path id="Sk6UpikOf_pad-15" d="M-200-300h400v600h-400z"/><path id="Sk6UpikOf_pad-16" d="M-375-150h750v300h-750z"/><path id="Sk6UpikOf_pad-17" d="M-150-375h300v750h-300z"/><path id="Sk6UpikOf_pad-18" d="M-800-800H800V800H-800z"/><circle id="Sk6UpikOf_pad-19" r="300"/><path id="BJZpL6o1dG_pad-11" d="M-863.6-1016H863.6v2032H-863.6z"/><rect id="BJZpL6o1dG_pad-12" width="1727.2" height="1727.2" x="-863.6" y="-863.6" rx="863.6" ry="863.6"/><path id="BJZpL6o1dG_pad-13" d="M-300-200h600v400h-600z"/><path id="BJZpL6o1dG_pad-14" d="M-300-250h600v500h-600z"/><path id="BJZpL6o1dG_pad-15" d="M-200-300h400v600h-400z"/><path id="BJZpL6o1dG_pad-16" d="M-375-150h750v300h-750z"/><path id="BJZpL6o1dG_pad-17" d="M-150-375h300v750h-300z"/><path id="BJZpL6o1dG_pad-18" d="M-480-480h960v960h-960z"/><path id="Sk6UpikOf_pad-11" d="M-863.6-1016H863.6v2032H-863.6z"/><rect id="Sk6UpikOf_pad-12" width="1727.2" height="1727.2" x="-863.6" y="-863.6" rx="863.6" ry="863.6"/><path id="Sk6UpikOf_pad-13" d="M-300-200h600v400h-600z"/><path id="Sk6UpikOf_pad-14" d="M-300-250h600v500h-600z"/><path id="Sk6UpikOf_pad-15" d="M-200-300h400v600h-400z"/><path id="Sk6UpikOf_pad-16" d="M-375-150h750v300h-750z"/><path id="Sk6UpikOf_pad-17" d="M-150-375h300v750h-300z"/><path id="Sk6UpikOf_pad-18" d="M-800-800H800V800H-800z"/><circle id="Sk6UpikOf_pad-19" r="300"/><path id="Sk6UpikOf_pad-11" d="M-863.6-1016H863.6v2032H-863.6z"/><rect id="Sk6UpikOf_pad-12" width="1727.2" height="1727.2" x="-863.6" y="-863.6" rx="863.6" ry="863.6"/><path id="Sk6UpikOf_pad-13" d="M-300-200h600v400h-600z"/><path id="Sk6UpikOf_pad-14" d="M-300-250h600v500h-600z"/><path id="Sk6UpikOf_pad-15" d="M-200-300h400v600h-400z"/><path id="Sk6UpikOf_pad-16" d="M-375-150h750v300h-750z"/><path id="Sk6UpikOf_pad-17" d="M-150-375h300v750h-300z"/><path id="Sk6UpikOf_pad-18" d="M-800-800H800V800H-800z"/><circle id="Sk6UpikOf_pad-19" r="300"/><path id="Sk6UpikOf_pad-11" d="M-863.6-1016H863.6v2032H-863.6z"/><rect id="Sk6UpikOf_pad-12" width="1727.2" height="1727.2" x="-863.6" y="-863.6" rx="863.6" ry="863.6"/><path id="Sk6UpikOf_pad-13" d="M-300-200h600v400h-600z"/><path id="Sk6UpikOf_pad-14" d="M-300-250h600v500h-600z"/><path id="Sk6UpikOf_pad-15" d="M-200-300h400v600h-400z"/><path id="Sk6UpikOf_pad-16" d="M-375-150h750v300h-750z"/><path id="Sk6UpikOf_pad-17" d="M-150-375h300v750h-300z"/><path id="Sk6UpikOf_pad-18" d="M-800-800H800V800H-800z"/><circle id="Sk6UpikOf_pad-19" r="300"/><path id="Sk6UpikOf_pad-11" d="M-863.6-1016H863.6v2032H-863.6z"/><rect id="Sk6UpikOf_pad-12" width="1727.2" height="1727.2" x="-863.6" y="-863.6" rx="863.6" ry="863.6"/><path id="Sk6UpikOf_pad-13" d="M-300-200h600v400h-600z"/><path id="Sk6UpikOf_pad-14" d="M-300-250h600v500h-600z"/><path id="Sk6UpikOf_pad-15" d="M-200-300h400v600h-400z"/><path id="Sk6UpikOf_pad-16" d="M-375-150h750v300h-750z"/><path id="Sk6UpikOf_pad-17" d="M-150-375h300v750h-300z"/><path id="Sk6UpikOf_pad-18" d="M-800-800H800V800H-800z"/><circle id="Sk6UpikOf_pad-19" r="300"/><path id="BJZpL6o1dG_pad-11" d="M-863.6-1016H863.6v2032H-863.6z"/><rect id="BJZpL6o1dG_pad-12" width="1727.2" height="1727.2" x="-863.6" y="-863.6" rx="863.6" ry="863.6"/><path id="BJZpL6o1dG_pad-13" d="M-300-200h600v400h-600z"/><path id="BJZpL6o1dG_pad-14" d="M-300-250h600v500h-600z"/><path id="BJZpL6o1dG_pad-15" d="M-200-300h400v600h-400z"/><path id="BJZpL6o1dG_pad-16" d="M-375-150h750v300h-750z"/><path id="BJZpL6o1dG_pad-17" d="M-150-375h300v750h-300z"/><path id="BJZpL6o1dG_pad-18" d="M-480-480h960v960h-960z"/><path id="Sk6UpikOf_pad-11" d="M-863.6-1016H863.6v2032H-863.6z"/><rect id="Sk6UpikOf_pad-12" width="1727.2" height="1727.2" x="-863.6" y="-863.6" rx="863.6" ry="863.6"/><path id="Sk6UpikOf_pad-13" d="M-300-200h600v400h-600z"/><path id="Sk6UpikOf_pad-14" d="M-300-250h600v500h-600z"/><path id="Sk6UpikOf_pad-15" d="M-200-300h400v600h-400z"/><path id="Sk6UpikOf_pad-16" d="M-375-150h750v300h-750z"/><path id="Sk6UpikOf_pad-17" d="M-150-375h300v750h-300z"/><path id="Sk6UpikOf_pad-18" d="M-800-800H800V800H-800z"/><circle id="Sk6UpikOf_pad-19" r="300"/><path id="Sk6UpikOf_pad-11" d="M-863.6-1016H863.6v2032H-863.6z"/><rect id="Sk6UpikOf_pad-12" width="1727.2" height="1727.2" x="-863.6" y="-863.6" rx="863.6" ry="863.6"/><path id="Sk6UpikOf_pad-13" d="M-300-200h600v400h-600z"/><path id="Sk6UpikOf_pad-14" d="M-300-250h600v500h-600z"/><path id="Sk6UpikOf_pad-15" d="M-200-300h400v600h-400z"/><path id="Sk6UpikOf_pad-16" d="M-375-150h750v300h-750z"/><path id="Sk6UpikOf_pad-17" d="M-150-375h300v750h-300z"/><path id="Sk6UpikOf_pad-18" d="M-800-800H800V800H-800z"/><circle id="Sk6UpikOf_pad-19" r="300"/><path id="Sk6UpikOf_pad-11" d="M-863.6-1016H863.6v2032H-863.6z"/><rect id="Sk6UpikOf_pad-12" width="1727.2" height="1727.2" x="-863.6" y="-863.6" rx="863.6" ry="863.6"/><path id="Sk6UpikOf_pad-13" d="M-300-200h600v400h-600z"/><path id="Sk6UpikOf_pad-14" d="M-300-250h600v500h-600z"/><path id="Sk6UpikOf_pad-15" d="M-200-300h400v600h-400z"/><path id="Sk6UpikOf_pad-16" d="M-375-150h750v300h-750z"/><path id="Sk6UpikOf_pad-17" d="M-150-375h300v750h-300z"/><path id="Sk6UpikOf_pad-18" d="M-800-800H800V800H-800z"/><circle id="Sk6UpikOf_pad-19" r="300"/><path id="Sk6UpikOf_pad-11" d="M-863.6-1016H863.6v2032H-863.6z"/><rect id="Sk6UpikOf_pad-12" width="1727.2" height="1727.2" x="-863.6" y="-863.6" rx="863.6" ry="863.6"/><path id="Sk6UpikOf_pad-13" d="M-300-200h600v400h-600z"/><path id="Sk6UpikOf_pad-14" d="M-300-250h600v500h-600z"/><path id="Sk6UpikOf_pad-15" d="M-200-300h400v600h-400z"/><path id="Sk6UpikOf_pad-16" d="M-375-150h750v300h-750z"/><path id="Sk6UpikOf_pad-17" d="M-150-375h300v750h-300z"/><path id="Sk6UpikOf_pad-18" d="M-800-800H800V800H-800z"/><circle id="Sk6UpikOf_pad-19" r="300"/><path id="BJZpL6o1dG_pad-11" d="M-863.6-1016H863.6v2032H-863.6z"/><rect id="BJZpL6o1dG_pad-12" width="1727.2" height="1727.2" x="-863.6" y="-863.6" rx="863.6" ry="863.6"/><path id="BJZpL6o1dG_pad-13" d="M-300-200h600v400h-600z"/><path id="BJZpL6o1dG_pad-14" d="M-300-250h600v500h-600z"/><path id="BJZpL6o1dG_pad-15" d="M-200-300h400v600h-400z"/><path id="BJZpL6o1dG_pad-16" d="M-375-150h750v300h-750z"/><path id="BJZpL6o1dG_pad-17" d="M-150-375h300v750h-300z"/><path id="BJZpL6o1dG_pad-18" d="M-480-480h960v960h-960z"/><circle id="rJ_TITj1dG_pad-1" r="6"/><path id="Sk6UpikOf_pad-11" d="M-863.6-1016H863.6v2032H-863.6z"/><rect id="Sk6UpikOf_pad-12" width="1727.2" height="1727.2" x="-863.6" y="-863.6" rx="863.6" ry="863.6"/><path id="Sk6UpikOf_pad-13" d="M-300-200h600v400h-600z"/><path id="Sk6UpikOf_pad-14" d="M-300-250h600v500h-600z"/><path id="Sk6UpikOf_pad-15" d="M-200-300h400v600h-400z"/><path id="Sk6UpikOf_pad-16" d="M-375-150h750v300h-750z"/><path id="Sk6UpikOf_pad-17" d="M-150-375h300v750h-300z"/><path id="Sk6UpikOf_pad-18" d="M-800-800H800V800H-800z"/><circle id="Sk6UpikOf_pad-19" r="300"/><path id="Sk6UpikOf_pad-11" d="M-863.6-1016H863.6v2032H-863.6z"/><rect id="Sk6UpikOf_pad-12" width="1727.2" height="1727.2" x="-863.6" y="-863.6" rx="863.6" ry="863.6"/><path id="Sk6UpikOf_pad-13" d="M-300-200h600v400h-600z"/><path id="Sk6UpikOf_pad-14" d="M-300-250h600v500h-600z"/><path id="Sk6UpikOf_pad-15" d="M-200-300h400v600h-400z"/><path id="Sk6UpikOf_pad-16" d="M-375-150h750v300h-750z"/><path id="Sk6UpikOf_pad-17" d="M-150-375h300v750h-300z"/><path id="Sk6UpikOf_pad-18" d="M-800-800H800V800H-800z"/><circle id="Sk6UpikOf_pad-19" r="300"/><path id="Sk6UpikOf_pad-11" d="M-863.6-1016H863.6v2032H-863.6z"/><rect id="Sk6UpikOf_pad-12" width="1727.2" height="1727.2" x="-863.6" y="-863.6" rx="863.6" ry="863.6"/><path id="Sk6UpikOf_pad-13" d="M-300-200h600v400h-600z"/><path id="Sk6UpikOf_pad-14" d="M-300-250h600v500h-600z"/><path id="Sk6UpikOf_pad-15" d="M-200-300h400v600h-400z"/><path id="Sk6UpikOf_pad-16" d="M-375-150h750v300h-750z"/><path id="Sk6UpikOf_pad-17" d="M-150-375h300v750h-300z"/><path id="Sk6UpikOf_pad-18" d="M-800-800H800V800H-800z"/><circle id="Sk6UpikOf_pad-19" r="300"/><path id="Sk6UpikOf_pad-11" d="M-863.6-1016H863.6v2032H-863.6z"/><rect id="Sk6UpikOf_pad-12" width="1727.2" height="1727.2" x="-863.6" y="-863.6" rx="863.6" ry="863.6"/><path id="Sk6UpikOf_pad-13" d="M-300-200h600v400h-600z"/><path id="Sk6UpikOf_pad-14" d="M-300-250h600v500h-600z"/><path id="Sk6UpikOf_pad-15" d="M-200-300h400v600h-400z"/><path id="Sk6UpikOf_pad-16" d="M-375-150h750v300h-750z"/><path id="Sk6UpikOf_pad-17" d="M-150-375h300v750h-300z"/><path id="Sk6UpikOf_pad-18" d="M-800-800H800V800H-800z"/><circle id="Sk6UpikOf_pad-19" r="300"/><path id="BJZpL6o1dG_pad-11" d="M-863.6-1016H863.6v2032H-863.6z"/><rect id="BJZpL6o1dG_pad-12" width="1727.2" height="1727.2" x="-863.6" y="-863.6" rx="863.6" ry="863.6"/><path id="BJZpL6o1dG_pad-13" d="M-300-200h600v400h-600z"/><path id="BJZpL6o1dG_pad-14" d="M-300-250h600v500h-600z"/><path id="BJZpL6o1dG_pad-15" d="M-200-300h400v600h-400z"/><path id="BJZpL6o1dG_pad-16" d="M-375-150h750v300h-750z"/><path id="BJZpL6o1dG_pad-17" d="M-150-375h300v750h-300z"/><path id="BJZpL6o1dG_pad-18" d="M-480-480h960v960h-960z"/><path id="Sk6UpikOf_pad-11" d="M-863.6-1016H863.6v2032H-863.6z"/><rect id="Sk6UpikOf_pad-12" width="1727.2" height="1727.2" x="-863.6" y="-863.6" rx="863.6" ry="863.6"/><path id="Sk6UpikOf_pad-13" d="M-300-200h600v400h-600z"/><path id="Sk6UpikOf_pad-14" d="M-300-250h600v500h-600z"/><path id="Sk6UpikOf_pad-15" d="M-200-300h400v600h-400z"/><path id="Sk6UpikOf_pad-16" d="M-375-150h750v300h-750z"/><path id="Sk6UpikOf_pad-17" d="M-150-375h300v750h-300z"/><path id="Sk6UpikOf_pad-18" d="M-800-800H800V800H-800z"/><circle id="Sk6UpikOf_pad-19" r="300"/><path id="Sk6UpikOf_pad-11" d="M-863.6-1016H863.6v2032H-863.6z"/><rect id="Sk6UpikOf_pad-12" width="1727.2" height="1727.2" x="-863.6" y="-863.6" rx="863.6" ry="863.6"/><path id="Sk6UpikOf_pad-13" d="M-300-200h600v400h-600z"/><path id="Sk6UpikOf_pad-14" d="M-300-250h600v500h-600z"/><path id="Sk6UpikOf_pad-15" d="M-200-300h400v600h-400z"/><path id="Sk6UpikOf_pad-16" d="M-375-150h750v300h-750z"/><path id="Sk6UpikOf_pad-17" d="M-150-375h300v750h-300z"/><path id="Sk6UpikOf_pad-18" d="M-800-800H800V800H-800z"/><circle id="Sk6UpikOf_pad-19" r="300"/><path id="Sk6UpikOf_pad-11" d="M-863.6-1016H863.6v2032H-863.6z"/><rect id="Sk6UpikOf_pad-12" width="1727.2" height="1727.2" x="-863.6" y="-863.6" rx="863.6" ry="863.6"/><path id="Sk6UpikOf_pad-13" d="M-300-200h600v400h-600z"/><path id="Sk6UpikOf_pad-14" d="M-300-250h600v500h-600z"/><path id="Sk6UpikOf_pad-15" d="M-200-300h400v600h-400z"/><path id="Sk6UpikOf_pad-16" d="M-375-150h750v300h-750z"/><path id="Sk6UpikOf_pad-17" d="M-150-375h300v750h-300z"/><path id="Sk6UpikOf_pad-18" d="M-800-800H800V800H-800z"/><circle id="Sk6UpikOf_pad-19" r="300"/><path id="Sk6UpikOf_pad-11" d="M-863.6-1016H863.6v2032H-863.6z"/><rect id="Sk6UpikOf_pad-12" width="1727.2" height="1727.2" x="-863.6" y="-863.6" rx="863.6" ry="863.6"/><path id="Sk6UpikOf_pad-13" d="M-300-200h600v400h-600z"/><path id="Sk6UpikOf_pad-14" d="M-300-250h600v500h-600z"/><path id="Sk6UpikOf_pad-15" d="M-200-300h400v600h-400z"/><path id="Sk6UpikOf_pad-16" d="M-375-150h750v300h-750z"/><path id="Sk6UpikOf_pad-17" d="M-150-375h300v750h-300z"/><path id="Sk6UpikOf_pad-18" d="M-800-800H800V800H-800z"/><circle id="Sk6UpikOf_pad-19" r="300"/><path id="BJZpL6o1dG_pad-11" d="M-863.6-1016H863.6v2032H-863.6z"/><rect id="BJZpL6o1dG_pad-12" width="1727.2" height="1727.2" x="-863.6" y="-863.6" rx="863.6" ry="863.6"/><path id="BJZpL6o1dG_pad-13" d="M-300-200h600v400h-600z"/><path id="BJZpL6o1dG_pad-14" d="M-300-250h600v500h-600z"/><path id="BJZpL6o1dG_pad-15" d="M-200-300h400v600h-400z"/><path id="BJZpL6o1dG_pad-16" d="M-375-150h750v300h-750z"/><path id="BJZpL6o1dG_pad-17" d="M-150-375h300v750h-300z"/><path id="BJZpL6o1dG_pad-18" d="M-480-480h960v960h-960z"/><path id="Sk6UpikOf_pad-11" d="M-863.6-1016H863.6v2032H-863.6z"/><rect id="Sk6UpikOf_pad-12" width="1727.2" height="1727.2" x="-863.6" y="-863.6" rx="863.6" ry="863.6"/><path id="Sk6UpikOf_pad-13" d="M-300-200h600v400h-600z"/><path id="Sk6UpikOf_pad-14" d="M-300-250h600v500h-600z"/><path id="Sk6UpikOf_pad-15" d="M-200-300h400v600h-400z"/><path id="Sk6UpikOf_pad-16" d="M-375-150h750v300h-750z"/><path id="Sk6UpikOf_pad-17" d="M-150-375h300v750h-300z"/><path id="Sk6UpikOf_pad-18" d="M-800-800H800V800H-800z"/><circle id="Sk6UpikOf_pad-19" r="300"/><path id="Sk6UpikOf_pad-11" d="M-863.6-1016H863.6v2032H-863.6z"/><rect id="Sk6UpikOf_pad-12" width="1727.2" height="1727.2" x="-863.6" y="-863.6" rx="863.6" ry="863.6"/><path id="Sk6UpikOf_pad-13" d="M-300-200h600v400h-600z"/><path id="Sk6UpikOf_pad-14" d="M-300-250h600v500h-600z"/><path id="Sk6UpikOf_pad-15" d="M-200-300h400v600h-400z"/><path id="Sk6UpikOf_pad-16" d="M-375-150h750v300h-750z"/><path id="Sk6UpikOf_pad-17" d="M-150-375h300v750h-300z"/><path id="Sk6UpikOf_pad-18" d="M-800-800H800V800H-800z"/><circle id="Sk6UpikOf_pad-19" r="300"/><path id="Sk6UpikOf_pad-11" d="M-863.6-1016H863.6v2032H-863.6z"/><rect id="Sk6UpikOf_pad-12" width="1727.2" height="1727.2" x="-863.6" y="-863.6" rx="863.6" ry="863.6"/><path id="Sk6UpikOf_pad-13" d="M-300-200h600v400h-600z"/><path id="Sk6UpikOf_pad-14" d="M-300-250h600v500h-600z"/><path id="Sk6UpikOf_pad-15" d="M-200-300h400v600h-400z"/><path id="Sk6UpikOf_pad-16" d="M-375-150h750v300h-750z"/><path id="Sk6UpikOf_pad-17" d="M-150-375h300v750h-300z"/><path id="Sk6UpikOf_pad-18" d="M-800-800H800V800H-800z"/><circle id="Sk6UpikOf_pad-19" r="300"/><path id="Sk6UpikOf_pad-11" d="M-863.6-1016H863.6v2032H-863.6z"/><rect id="Sk6UpikOf_pad-12" width="1727.2" height="1727.2" x="-863.6" y="-863.6" rx="863.6" ry="863.6"/><path id="Sk6UpikOf_pad-13" d="M-300-200h600v400h-600z"/><path id="Sk6UpikOf_pad-14" d="M-300-250h600v500h-600z"/><path id="Sk6UpikOf_pad-15" d="M-200-300h400v600h-400z"/><path id="Sk6UpikOf_pad-16" d="M-375-150h750v300h-750z"/><path id="Sk6UpikOf_pad-17" d="M-150-375h300v750h-300z"/><path id="Sk6UpikOf_pad-18" d="M-800-800H800V800H-800z"/><circle id="Sk6UpikOf_pad-19" r="300"/><path id="BJZpL6o1dG_pad-11" d="M-863.6-1016H863.6v2032H-863.6z"/><rect id="BJZpL6o1dG_pad-12" width="1727.2" height="1727.2" x="-863.6" y="-863.6" rx="863.6" ry="863.6"/><path id="BJZpL6o1dG_pad-13" d="M-300-200h600v400h-600z"/><path id="BJZpL6o1dG_pad-14" d="M-300-250h600v500h-600z"/><path id="BJZpL6o1dG_pad-15" d="M-200-300h400v600h-400z"/><path id="BJZpL6o1dG_pad-16" d="M-375-150h750v300h-750z"/><path id="BJZpL6o1dG_pad-17" d="M-150-375h300v750h-300z"/><path id="BJZpL6o1dG_pad-18" d="M-480-480h960v960h-960z"/><path id="Sk6UpikOf_pad-11" d="M-863.6-1016H863.6v2032H-863.6z"/><rect id="Sk6UpikOf_pad-12" width="1727.2" height="1727.2" x="-863.6" y="-863.6" rx="863.6" ry="863.6"/><path id="Sk6UpikOf_pad-13" d="M-300-200h600v400h-600z"/><path id="Sk6UpikOf_pad-14" d="M-300-250h600v500h-600z"/><path id="Sk6UpikOf_pad-15" d="M-200-300h400v600h-400z"/><path id="Sk6UpikOf_pad-16" d="M-375-150h750v300h-750z"/><path id="Sk6UpikOf_pad-17" d="M-150-375h300v750h-300z"/><path id="Sk6UpikOf_pad-18" d="M-800-800H800V800H-800z"/><circle id="Sk6UpikOf_pad-19" r="300"/><path id="Sk6UpikOf_pad-11" d="M-863.6-1016H863.6v2032H-863.6z"/><rect id="Sk6UpikOf_pad-12" width="1727.2" height="1727.2" x="-863.6" y="-863.6" rx="863.6" ry="863.6"/><path id="Sk6UpikOf_pad-13" d="M-300-200h600v400h-600z"/><path id="Sk6UpikOf_pad-14" d="M-300-250h600v500h-600z"/><path id="Sk6UpikOf_pad-15" d="M-200-300h400v600h-400z"/><path id="Sk6UpikOf_pad-16" d="M-375-150h750v300h-750z"/><path id="Sk6UpikOf_pad-17" d="M-150-375h300v750h-300z"/><path id="Sk6UpikOf_pad-18" d="M-800-800H800V800H-800z"/><circle id="Sk6UpikOf_pad-19" r="300"/><path id="Sk6UpikOf_pad-11" d="M-863.6-1016H863.6v2032H-863.6z"/><rect id="Sk6UpikOf_pad-12" width="1727.2" height="1727.2" x="-863.6" y="-863.6" rx="863.6" ry="863.6"/><path id="Sk6UpikOf_pad-13" d="M-300-200h600v400h-600z"/><path id="Sk6UpikOf_pad-14" d="M-300-250h600v500h-600z"/><path id="Sk6UpikOf_pad-15" d="M-200-300h400v600h-400z"/><path id="Sk6UpikOf_pad-16" d="M-375-150h750v300h-750z"/><path id="Sk6UpikOf_pad-17" d="M-150-375h300v750h-300z"/><path id="Sk6UpikOf_pad-18" d="M-800-800H800V800H-800z"/><circle id="Sk6UpikOf_pad-19" r="300"/><path id="Sk6UpikOf_pad-11" d="M-863.6-1016H863.6v2032H-863.6z"/><rect id="Sk6UpikOf_pad-12" width="1727.2" height="1727.2" x="-863.6" y="-863.6" rx="863.6" ry="863.6"/><path id="Sk6UpikOf_pad-13" d="M-300-200h600v400h-600z"/><path id="Sk6UpikOf_pad-14" d="M-300-250h600v500h-600z"/><path id="Sk6UpikOf_pad-15" d="M-200-300h400v600h-400z"/><path id="Sk6UpikOf_pad-16" d="M-375-150h750v300h-750z"/><path id="Sk6UpikOf_pad-17" d="M-150-375h300v750h-300z"/><path id="Sk6UpikOf_pad-18" d="M-800-800H800V800H-800z"/><circle id="Sk6UpikOf_pad-19" r="300"/><path id="BJZpL6o1dG_pad-11" d="M-863.6-1016H863.6v2032H-863.6z"/><rect id="BJZpL6o1dG_pad-12" width="1727.2" height="1727.2" x="-863.6" y="-863.6" rx="863.6" ry="863.6"/><path id="BJZpL6o1dG_pad-13" d="M-300-200h600v400h-600z"/><path id="BJZpL6o1dG_pad-14" d="M-300-250h600v500h-600z"/><path id="BJZpL6o1dG_pad-15" d="M-200-300h400v600h-400z"/><path id="BJZpL6o1dG_pad-16" d="M-375-150h750v300h-750z"/><path id="BJZpL6o1dG_pad-17" d="M-150-375h300v750h-300z"/><path id="BJZpL6o1dG_pad-18" d="M-480-480h960v960h-960z"/><circle id="rJ_TITj1dG_pad-1" r="6"/><g id="pcb-stackup_bottom_cu"><use x="18060" y="-27650" xlink:href="#Sk6UpikOf_pad-11"/><use x="20600" y="-27650" xlink:href="#Sk6UpikOf_pad-12"/><use x="23140" y="-27650" xlink:href="#Sk6UpikOf_pad-12"/><use x="25680" y="-27650" xlink:href="#Sk6UpikOf_pad-12"/><use x="27300" y="-25450" xlink:href="#Sk6UpikOf_pad-13"/><use x="27300" y="-24550" xlink:href="#Sk6UpikOf_pad-13"/><use x="27300" y="-20410" xlink:href="#Sk6UpikOf_pad-13"/><use x="27300" y="-19510" xlink:href="#Sk6UpikOf_pad-13"/><use x="18775" y="-25950" xlink:href="#Sk6UpikOf_pad-14"/><use x="19875" y="-25950" xlink:href="#Sk6UpikOf_pad-14"/><use x="19875" y="-23550" xlink:href="#Sk6UpikOf_pad-14"/><use x="18775" y="-23550" xlink:href="#Sk6UpikOf_pad-14"/><use x="19875" y="-24750" xlink:href="#Sk6UpikOf_pad-14"/><use x="18775" y="-24750" xlink:href="#Sk6UpikOf_pad-14"/><use x="27300" y="-26450" xlink:href="#Sk6UpikOf_pad-13"/><use x="27300" y="-27350" xlink:href="#Sk6UpikOf_pad-13"/><use x="27300" y="-22100" xlink:href="#Sk6UpikOf_pad-13"/><use x="27300" y="-21200" xlink:href="#Sk6UpikOf_pad-13"/><use x="19050" y="-22300" xlink:href="#Sk6UpikOf_pad-15"/><use x="19950" y="-22300" xlink:href="#Sk6UpikOf_pad-15"/><use x="19050" y="-21000" xlink:href="#Sk6UpikOf_pad-15"/><use x="19950" y="-21000" xlink:href="#Sk6UpikOf_pad-15"/><use x="18070" y="-19350" xlink:href="#Sk6UpikOf_pad-11"/><use x="20610" y="-19350" xlink:href="#Sk6UpikOf_pad-12"/><use x="23150" y="-19350" xlink:href="#Sk6UpikOf_pad-12"/><use x="25690" y="-19350" xlink:href="#Sk6UpikOf_pad-12"/><use x="28500" y="-20550" xlink:href="#Sk6UpikOf_pad-13"/><use x="28500" y="-21450" xlink:href="#Sk6UpikOf_pad-13"/><use x="28500" y="-25300" xlink:href="#Sk6UpikOf_pad-13"/><use x="28500" y="-26200" xlink:href="#Sk6UpikOf_pad-13"/><use x="25900" y="-21825" xlink:href="#Sk6UpikOf_pad-16"/><use x="25900" y="-22475" xlink:href="#Sk6UpikOf_pad-16"/><use x="25900" y="-23125" xlink:href="#Sk6UpikOf_pad-16"/><use x="25900" y="-23775" xlink:href="#Sk6UpikOf_pad-16"/><use x="25900" y="-24425" xlink:href="#Sk6UpikOf_pad-16"/><use x="25900" y="-25075" xlink:href="#Sk6UpikOf_pad-16"/><use x="25200" y="-25775" xlink:href="#Sk6UpikOf_pad-17"/><use x="24550" y="-25775" xlink:href="#Sk6UpikOf_pad-17"/><use x="23900" y="-25775" xlink:href="#Sk6UpikOf_pad-17"/><use x="23250" y="-25775" xlink:href="#Sk6UpikOf_pad-17"/><use x="22600" y="-25775" xlink:href="#Sk6UpikOf_pad-17"/><use x="21950" y="-25775" xlink:href="#Sk6UpikOf_pad-17"/><use x="21250" y="-25075" xlink:href="#Sk6UpikOf_pad-16"/><use x="21250" y="-24425" xlink:href="#Sk6UpikOf_pad-16"/><use x="21250" y="-23775" xlink:href="#Sk6UpikOf_pad-16"/><use x="21250" y="-23125" xlink:href="#Sk6UpikOf_pad-16"/><use x="21250" y="-22475" xlink:href="#Sk6UpikOf_pad-16"/><use x="21250" y="-21825" xlink:href="#Sk6UpikOf_pad-16"/><use x="21950" y="-21125" xlink:href="#Sk6UpikOf_pad-17"/><use x="22600" y="-21125" xlink:href="#Sk6UpikOf_pad-17"/><use x="23250" y="-21125" xlink:href="#Sk6UpikOf_pad-17"/><use x="23900" y="-21125" xlink:href="#Sk6UpikOf_pad-17"/><use x="24550" y="-21125" xlink:href="#Sk6UpikOf_pad-17"/><use x="25200" y="-21125" xlink:href="#Sk6UpikOf_pad-17"/><use x="22775" y="-24250" xlink:href="#Sk6UpikOf_pad-18"/><use x="22775" y="-22650" xlink:href="#Sk6UpikOf_pad-18"/><use x="24375" y="-24250" xlink:href="#Sk6UpikOf_pad-18"/><use x="24375" y="-22650" xlink:href="#Sk6UpikOf_pad-18"/><use x="24490" y="-18770" xlink:href="#Sk6UpikOf_pad-19"/><use x="17750.01" y="-21000" xlink:href="#Sk6UpikOf_pad-19"/><use x="26202.402" y="-18600" xlink:href="#Sk6UpikOf_pad-19"/><use x="26797.68" y="-22704.641" xlink:href="#Sk6UpikOf_pad-19"/><use x="26202.402" y="-25900" xlink:href="#Sk6UpikOf_pad-19"/><use x="17750" y="-26000" xlink:href="#Sk6UpikOf_pad-19"/><use x="17900" y="-21925" xlink:href="#Sk6UpikOf_pad-19"/><use x="17900" y="-23925" xlink:href="#Sk6UpikOf_pad-19"/><use x="27730" y="-23220" xlink:href="#Sk6UpikOf_pad-19"/><use x="28500" y="-21790" xlink:href="#Sk6UpikOf_pad-19"/><use x="28300" y="-26500" xlink:href="#Sk6UpikOf_pad-19"/><use x="28300" y="-20450" xlink:href="#Sk6UpikOf_pad-19"/><use x="28500" y="-25230" xlink:href="#Sk6UpikOf_pad-19"/><path fill="none" stroke-width="152.4" d="M23250-21125v-1050l-475-475m1600-1600h-1600m0 1600h1600"/><path fill="none" stroke-width="300" d="M24490-18770v-940l-700-700h-150l-390-390v-325"/><path fill="none" stroke-width="152.4" d="M18700-23550v-1200h-1300l-180-180v-1440l180-180v-1950m-140 3600l40 40v3409.99l150.011 150.011L17750.01-21000M24375-22650v-1600m-1145 2055l-455-455m-4815-5000v152.4m740 1547.6v-1210l-740-740m8242.402 9300v-237.598L25690-19350m835-3125l215-215h43.039l14.641-14.641M26202.402-25900L25680-26422.402V-27650m920 8650h-560l-350-350m-5815-4200l-365 365v3175l-340 340v1430m200-8900l630 630h850m420 420v320m-2130-2980l230 230v1380m1480 630l420 420m2630 4965v275l1500 1500h290m1360-8850h-950l-2200 2200m3400-2370v1020m-6030 1580v675l-20 20m695-695l5-5m-680 5h675m-1270 2645h575m4650 650h625m-6725-1075h450l425 425m3225-2773.4v123.4m-2650 2000h-275l-975-975h-200m-1750.001-950.001L17750-26000m1400 650h-750m1350 600l-600-600m650 600h-50m-1350-600l-350.001-350.001M19900-24900h-50m7450 4490v-790m0-4250v-1000m-4700 5325v1400l475 475m-2540 0h115l1300-1300v-575m-3725-800h-325m1150 825l-825-825m825 925v-100m0-1200h-325l-825-825v-800m0 802v-802m3350-500h-425l-325-325v-500l-700-700m7070 3850l-275 275h-695m1400-275h-430m-745 275h-225m0-2600h1275l125-125m-6050 2725h-575l-725 725v100m1300-825h-325m325-650h-1125l-175 175m6083.243-933.243L25900-23100m1392.493-133.243h-1259.25m1272.493 13.243l-13.243-13.243M27730-23220h-424.264M28500-21790v290m-2600-2275h1450l500-500v-1775l150.001-150.001L28300-26500m450 0h-450m700 250l-250-250m-4200 5375v225l390 390h1275l550 550h1045l490-490m-175 150l150-150h25m125-125l-125 125m349.264-125H28425m725 75l-75-75h-425.736m500.736-25l-25 25h-475.736M26675-21125h-1475m3300-4105l-180 180v2320l-490 490v500l-90 90h-840l-150 150v300l-75 75m1825-4105l20-20h530l100-100m-6550-425v-476.6l-280.8-280.8h-854l-965.2-965.2v-152.4m0-152.4v152.4m0-97.6v-152.4m2750 2125v-1665l-210-210"/><path d="M18775.05-25949.95h20v-.1h-20v-421.4l46.35-46.35v-2328.6h-1296.423l-117.369 23.346-78.325 52.336-52.338 78.327-23.345 117.367v2292.187l48.013-116.2 148.568-148.827 194.213-80.644 210.29-.184 194.353 80.305 148.827 148.568 48.536 116.888v-62.541l34.803-84.02 64.306-64.306 84.02-34.802h288.271l57.15 57.15v421.4h-20v.1h20v20h.1v-20"/><path fill="none" stroke-width="152.4" d="M18775.05-25949.95h20v-.1h-20v-421.4l46.35-46.35v-2328.6h-1296.423l-117.369 23.346-78.325 52.336-52.338 78.327-23.345 117.367v2292.187l48.013-116.2 148.568-148.827 194.213-80.644 210.29-.184 194.353 80.305 148.827 148.568 48.536 116.888v-62.541l34.803-84.02 64.306-64.306 84.02-34.802h288.271l57.15 57.15v421.4h-20v.1h20v20h.1v-20"/><path d="M18821.4-20472.303l-56.114-10.559-77.804-50.066-52.197-76.392-18.363-90.68v-402.026l-396.125-396.125-20.978 21.015-194.213 80.644-210.29.184-194.353-80.305-148.827-148.568-80.644-194.213-.184-210.29 80.305-194.353 148.568-148.827 194.213-80.644 210.29-.184 194.353 80.305 148.827 148.568 12.86 30.971 79.802 53.322 185.504 185.504-9.108-44.978v-16.698l-8.564-1.704-98.884-66.072-818.973-818.973-6.027-4.027-66.072-98.884L17595.2-23123v-359.366l-143.064-142.815-80.644-194.213-.184-210.29 80.305-194.353 148.568-148.827 194.213-80.644 210.29-.184 194.353 80.305 148.827 148.568 80.644 194.213.002 2.428 1.019-.422h288.271l57.15 57.15v421.4h-20v.1h20v421.4l-57.15 57.15h-288.271l-76.609-31.732 336.309 336.309 70.091-47.892 62.08-12.571v-254.914l-46.35-46.35v-421.4h20v-.1h-20v-421.4l46.35-46.35v-264.4l-46.35-46.35v-421.4h20v-.1h-20v-20h-.1v20h-471.4l-57.15-57.15v-238.272l15.451-37.301-77.377-51.701-337.011-337.011-202.147.177-194.353-80.305-148.827-148.568-48.536-116.888v1362.541h992.8v-238.272l57.15-57.15h471.4v421.4l-57.15 57.15h-288.271l-84.02-34.802-64.306-64.306-34.803-84.02h-992.8v5929.552l23.345 117.367 52.338 78.327 78.325 52.336 117.369 23.346H18821.4v-2218.703"/><path fill="none" stroke-width="152.4" d="M18821.4-20472.303l-56.114-10.559-77.804-50.066-52.197-76.392-18.363-90.68v-402.026l-396.125-396.125-20.978 21.015-194.213 80.644-210.29.184-194.353-80.305-148.827-148.568-80.644-194.213-.184-210.29 80.305-194.353 148.568-148.827 194.213-80.644 210.29-.184 194.353 80.305 148.827 148.568 12.86 30.971 79.802 53.322 185.504 185.504-9.108-44.978v-16.698l-8.564-1.704-98.884-66.072-818.973-818.973-6.027-4.027-66.072-98.884L17595.2-23123v-359.366l-143.064-142.815-80.644-194.213-.184-210.29 80.305-194.353 148.568-148.827 194.213-80.644 210.29-.184 194.353 80.305 148.827 148.568 80.644 194.213.002 2.428 1.019-.422h288.271l57.15 57.15v421.4h-20v.1h20v421.4l-57.15 57.15h-288.271l-76.609-31.732 336.309 336.309 70.091-47.892 62.08-12.571v-254.914l-46.35-46.35v-421.4h20v-.1h-20v-421.4l46.35-46.35v-264.4l-46.35-46.35v-421.4h20v-.1h-20v-20h-.1v20h-471.4l-57.15-57.15v-238.272l15.451-37.301-77.377-51.701-337.011-337.011-202.147.177-194.353-80.305-148.827-148.568-48.536-116.888v1362.541h992.8v-238.272l57.15-57.15h471.4v421.4l-57.15 57.15h-288.271l-84.02-34.802-64.306-64.306-34.803-84.02h-992.8v5929.552l23.345 117.367 52.338 78.327 78.325 52.336 117.369 23.346H18821.4v-2218.703"/><path d="M29206.339-18395.118l12.533-31.333 20-50.001 6.666-10.245 4.123-11.506 21.415-35.693 14.724-44.171 58.954-176.862 39.094-136.829 2.829-5.506 1.001-6.107 27.85-74.266 17.626-61.692 19.384-77.536 17.521-70.086 8.871-79.835 2.505-7.901.185-8.286 19.999-90 .82-1.861.099-2.031 19.125-76.5 19.289-96.444.631-1.52.037-1.644 18.035-81.161 9.099-90.991 2.19-7.181.008-7.504 20-99.999v-.001l18.541-92.703 9.261-92.612 1.8-5.901-.102-6.165 18.908-103.992 9.394-93.942 1.8-5.901-.102-6.165 18.786-103.32 9.337-102.712 9.95-119.4 2.049-7.141-.122-7.427 18.684-102.759 9.389-112.673 5.865-70.377H28127v2496h1065.75l13.589-18.118"/><path fill="none" stroke-width="254" d="M29206.339-18395.118l12.533-31.333 20-50.001 6.666-10.245 4.123-11.506 21.415-35.693 14.724-44.171 58.954-176.862 39.094-136.829 2.829-5.506 1.001-6.107 27.85-74.266 17.626-61.692 19.384-77.536 17.521-70.086 8.871-79.835 2.505-7.901.185-8.286 19.999-90 .82-1.861.099-2.031 19.125-76.5 19.289-96.444.631-1.52.037-1.644 18.035-81.161 9.099-90.991 2.19-7.181.008-7.504 20-99.999v-.001l18.541-92.703 9.261-92.612 1.8-5.901-.102-6.165 18.908-103.992 9.394-93.942 1.8-5.901-.102-6.165 18.786-103.32 9.337-102.712 9.95-119.4 2.049-7.141-.122-7.427 18.684-102.759 9.389-112.673 5.865-70.377H28127v2496h1065.75l13.589-18.118"/><path d="M29768.448-21411.658l.133-.474-.056-.491 9.964-119.568 9.959-129.467.133-.474-.056-.491 9.964-119.568 9.511-123.643V-22030l1.152-5.794-.704-5.864 19.552-254.176V-22430l1.152-5.794-.704-5.864 9.552-124.176V-22830l1.152-5.794-.704-5.864 9.552-124.176V-23123h-246v473l-3.881 19.512v19.896l-30.448 153.073-30.162 72.817-.002.002-86.707 129.768v.001l-27.866 27.865-27.865 27.866-.003.001-129.768 86.708-72.817 30.162-153.073 30.448h-78.816l-153.073-30.448-72.817-30.162-.002-.002-129.766-86.706-.003-.001-27.865-27.866-27.866-27.865v-.001l-80.659-120.715-282.941 282.941V-21740l-15.391 77.377-11.677 58.706-31.532 47.19V-21377h1638.782l2.666-34.658"/><path fill="none" stroke-width="254" d="M29768.448-21411.658l.133-.474-.056-.491 9.964-119.568 9.959-129.467.133-.474-.056-.491 9.964-119.568 9.511-123.643V-22030l1.152-5.794-.704-5.864 19.552-254.176V-22430l1.152-5.794-.704-5.864 9.552-124.176V-22830l1.152-5.794-.704-5.864 9.552-124.176V-23123h-246v473l-3.881 19.512v19.896l-30.448 153.073-30.162 72.817-.002.002-86.707 129.768v.001l-27.866 27.865-27.865 27.866-.003.001-129.768 86.708-72.817 30.162-153.073 30.448h-78.816l-153.073-30.448-72.817-30.162-.002-.002-129.766-86.706-.003-.001-27.865-27.866-27.866-27.865v-.001l-80.659-120.715-282.941 282.941V-21740l-15.391 77.377-11.677 58.706-31.532 47.19V-21377h1638.782l2.666-34.658"/><path d="M28398-24350l3.881-19.512v-19.896l30.448-153.073 30.162-72.817 86.708-129.768.001-.003 27.866-27.865 27.865-27.866.003-.001 129.766-86.706.002-.002 72.817-30.162 153.073-30.448h78.816l153.073 30.448 72.817 30.162 129.768 86.708.003.001 27.865 27.866 27.866 27.865.001.003 86.707 129.767.001.001 30.162 72.817 30.448 153.073v19.896L29602-24350v473h246v-157.166l-9.552-124.176.704-5.864-1.152-5.794v-264.166l-9.552-124.176.704-5.864-1.152-5.794v-134.166l-19.552-254.176.704-5.864-1.152-5.794v-124.166l-9.511-123.643-9.964-119.568.056-.491-.133-.474-9.959-129.467-9.964-119.568.056-.491-.133-.474-2.666-34.658H28205.6v1348l-18.49 92.957-8.578 43.126-51.532 77.122V-23877h271v-473"/><path fill="none" stroke-width="254" d="M28398-24350l3.881-19.512v-19.896l30.448-153.073 30.162-72.817 86.708-129.768.001-.003 27.866-27.865 27.865-27.866.003-.001 129.766-86.706.002-.002 72.817-30.162 153.073-30.448h78.816l153.073 30.448 72.817 30.162 129.768 86.708.003.001 27.865 27.866 27.866 27.865.001.003 86.707 129.767.001.001 30.162 72.817 30.448 153.073v19.896L29602-24350v473h246v-157.166l-9.552-124.176.704-5.864-1.152-5.794v-264.166l-9.552-124.176.704-5.864-1.152-5.794v-134.166l-19.552-254.176.704-5.864-1.152-5.794v-124.166l-9.511-123.643-9.964-119.568.056-.491-.133-.474-9.959-129.467-9.964-119.568.056-.491-.133-.474-2.666-34.658H28205.6v1348l-18.49 92.957-8.578 43.126-51.532 77.122V-23877h271v-473"/><path d="M29718.525-26197.377l-9.389-112.673-18.684-102.759.122-7.427-2.049-7.141-9.95-119.4-9.337-102.712-18.786-103.32.102-6.165-1.8-5.901-9.394-93.942-18.908-103.992.102-6.165-1.8-5.901-9.261-92.612-18.541-92.703v-.001l-20-99.999-.008-7.504-2.19-7.181-9.099-90.991-18.035-81.161-.037-1.644-.631-1.52-19.289-96.444-19.125-76.5-.099-2.031-.82-1.861-19.999-90-.185-8.286-2.505-7.901-8.871-79.835-17.521-70.086-19.384-77.536-17.626-61.692-27.85-74.266-1.001-6.107-2.829-5.506-39.094-136.829-58.954-176.862-14.724-44.171-21.415-35.693-4.123-11.506-6.666-10.245-19.999-49.998-.001-.002-12.533-31.334-13.589-18.118H28127v2496h1597.39l-5.865-70.377"/><path fill="none" stroke-width="254" d="M29718.525-26197.377l-9.389-112.673-18.684-102.759.122-7.427-2.049-7.141-9.95-119.4-9.337-102.712-18.786-103.32.102-6.165-1.8-5.901-9.394-93.942-18.908-103.992.102-6.165-1.8-5.901-9.261-92.612-18.541-92.703v-.001l-20-99.999-.008-7.504-2.19-7.181-9.099-90.991-18.035-81.161-.037-1.644-.631-1.52-19.289-96.444-19.125-76.5-.099-2.031-.82-1.861-19.999-90-.185-8.286-2.505-7.901-8.871-79.835-17.521-70.086-19.384-77.536-17.626-61.692-27.85-74.266-1.001-6.107-2.829-5.506-39.094-136.829-58.954-176.862-14.724-44.171-21.415-35.693-4.123-11.506-6.666-10.245-19.999-49.998-.001-.002-12.533-31.334-13.589-18.118H28127v2496h1597.39l-5.865-70.377"/><path d="M26766.922-24750l15.94-84.714 50.066-77.804 76.392-52.197 90.68-18.363h545.2v-33.844H27000l-84.714-15.94-77.804-50.066-52.197-76.392-18.363-90.68v-400l15.94-84.714 50.066-77.804 76.392-52.197 85.88-17.391v-135.719l-79.914-15.037-77.804-50.066-52.197-76.392-18.363-90.68v-400l15.94-84.714 50.066-77.804 76.392-52.197 90.68-18.363h600l84.714 15.94 77.804 50.066 31.282 45.782v-249.224l-.002.005-64.306 64.306-84.02 34.803H27357.2l-57.15-57.15v-371.4h20v-.1h-20v-371.4l57.15-57.15h288.272l84.02 34.803 64.306 64.306.002.005V-28750l3.537-18.8h-307.595l-8.656 43.515-9.943 24.005-24.579 59.338-130.064 194.654-63.788 63.788-.004.002-194.65 130.062-65.069 26.952-18.275 7.57-229.609 45.672-45.105-.001-45.105.001-229.61-45.672-83.343-34.522-194.654-130.064-63.788-63.788-.002-.004-130.062-194.65-8.565-20.678-25.957-62.666-8.655-43.514h-6780.225l8.281 12.12 18.363 90.68v2032l-15.94 84.714-14.538 22.592v103.25l33.514 6.306 77.804 50.066 52.197 76.392 18.363 90.68v500l-15.94 84.714-.326.506 73.714 49.254 332.448 332.448h387.896l-233.844-233.844H19575l-84.714-15.94-77.804-50.066-52.197-76.392-18.363-90.68v-500l15.94-84.714 50.066-77.804 76.392-52.197 90.68-18.363h600l84.714 15.94 77.804 50.066 52.197 76.392 18.363 90.68v427.026l307.448 307.448 30.954 46.326 83.049-34.4h363.271l57.15 57.15v321.4h-20v.1h20v20h.1v-20h20v-.1h-20v-321.4l57.15-57.15h264.2v-264.2l57.15-57.15h321.4v20h.1v-20h20v-.1h-20v-20h-.1v20h-321.4l-57.15-57.15v-363.271l13.308-32.129H21465.2l-116.642-23.202-66.919-44.714-31.965-21.358-290.895-290.895-358.779 71.366-417.967-83.139-354.335-236.759-236.759-354.335-83.139-417.967v-42.794l83.139-417.967 236.759-354.335 354.335-236.759 417.967-83.139 417.967 83.139 354.335 236.759 236.759 354.335 83.139 417.967v42.794l-83.139 417.967-156.631 234.414 139.022 139.022h727.748l109.76 21.833-61.262-40.934-236.759-354.335-83.139-417.967v-42.794l83.139-417.967 236.759-354.335 354.335-236.759 417.967-83.139 417.967 83.139 354.335 236.759 236.759 354.335 83.139 417.967v42.794l-44.039 221.403H26771.4v-188.271l34.802-84.02 64.306-64.306 84.02-34.803h288.272l57.15 57.15v371.4h-471.4l-57.15-57.15h-2583.239l-39.1 196.564-70.898 106.107H26771.4v-188.271l57.15-57.15h471.4v371.4l-57.15 57.15h-288.272l-84.02-34.803-64.306-64.306-34.802-84.02h-2693.237l-165.861 248.228-354.335 236.759-3.167.63v296.874l7.718 4.966 12.691 18.574 45.299-45.299 84.02-34.803h138.272l57.15 57.15v546.4h-20v.1h20v20h.1v-20h20v-.1h-20v-546.4l57.15-57.15h138.272l84.02 34.803 44.761 44.761 8.675-13.482 76.392-52.197 90.68-18.363h300l84.714 15.94 77.804 50.066 12.02 17.592 8.39-13.038 76.392-52.197 90.68-18.363h300l84.714 15.94 77.804 50.066 52.197 76.392 18.363 90.68v691.922H26275l84.714 15.94 77.804 50.066 52.197 76.392 18.363 90.68v300l-15.94 84.714-50.066 77.804-17.592 12.02 13.038 8.39 8.385 12.272h321.019v-20.2"/><path fill="none" stroke-width="152.4" d="M26766.922-24750l15.94-84.714 50.066-77.804 76.392-52.197 90.68-18.363h545.2v-33.844H27000l-84.714-15.94-77.804-50.066-52.197-76.392-18.363-90.68v-400l15.94-84.714 50.066-77.804 76.392-52.197 85.88-17.391v-135.719l-79.914-15.037-77.804-50.066-52.197-76.392-18.363-90.68v-400l15.94-84.714 50.066-77.804 76.392-52.197 90.68-18.363h600l84.714 15.94 77.804 50.066 31.282 45.782v-249.224l-.002.005-64.306 64.306-84.02 34.803H27357.2l-57.15-57.15v-371.4h20v-.1h-20v-371.4l57.15-57.15h288.272l84.02 34.803 64.306 64.306.002.005V-28750l3.537-18.8h-307.595l-8.656 43.515-9.943 24.005-24.579 59.338-130.064 194.654-63.788 63.788-.004.002-194.65 130.062-65.069 26.952-18.275 7.57-229.609 45.672-45.105-.001-45.105.001-229.61-45.672-83.343-34.522-194.654-130.064-63.788-63.788-.002-.004-130.062-194.65-8.565-20.678-25.957-62.666-8.655-43.514h-6780.225l8.281 12.12 18.363 90.68v2032l-15.94 84.714-14.538 22.592v103.25l33.514 6.306 77.804 50.066 52.197 76.392 18.363 90.68v500l-15.94 84.714-.326.506 73.714 49.254 332.448 332.448h387.896l-233.844-233.844H19575l-84.714-15.94-77.804-50.066-52.197-76.392-18.363-90.68v-500l15.94-84.714 50.066-77.804 76.392-52.197 90.68-18.363h600l84.714 15.94 77.804 50.066 52.197 76.392 18.363 90.68v427.026l307.448 307.448 30.954 46.326 83.049-34.4h363.271l57.15 57.15v321.4h-20v.1h20v20h.1v-20h20v-.1h-20v-321.4l57.15-57.15h264.2v-264.2l57.15-57.15h321.4v20h.1v-20h20v-.1h-20v-20h-.1v20h-321.4l-57.15-57.15v-363.271l13.308-32.129H21465.2l-116.642-23.202-66.919-44.714-31.965-21.358-290.895-290.895-358.779 71.366-417.967-83.139-354.335-236.759-236.759-354.335-83.139-417.967v-42.794l83.139-417.967 236.759-354.335 354.335-236.759 417.967-83.139 417.967 83.139 354.335 236.759 236.759 354.335 83.139 417.967v42.794l-83.139 417.967-156.631 234.414 139.022 139.022h727.748l109.76 21.833-61.262-40.934-236.759-354.335-83.139-417.967v-42.794l83.139-417.967 236.759-354.335 354.335-236.759 417.967-83.139 417.967 83.139 354.335 236.759 236.759 354.335 83.139 417.967v42.794l-44.039 221.403H26771.4v-188.271l34.802-84.02 64.306-64.306 84.02-34.803h288.272l57.15 57.15v371.4h-471.4l-57.15-57.15h-2583.239l-39.1 196.564-70.898 106.107H26771.4v-188.271l57.15-57.15h471.4v371.4l-57.15 57.15h-288.272l-84.02-34.803-64.306-64.306-34.802-84.02h-2693.237l-165.861 248.228-354.335 236.759-3.167.63v296.874l7.718 4.966 12.691 18.574 45.299-45.299 84.02-34.803h138.272l57.15 57.15v546.4h-20v.1h20v20h.1v-20h20v-.1h-20v-546.4l57.15-57.15h138.272l84.02 34.803 44.761 44.761 8.675-13.482 76.392-52.197 90.68-18.363h300l84.714 15.94 77.804 50.066 12.02 17.592 8.39-13.038 76.392-52.197 90.68-18.363h300l84.714 15.94 77.804 50.066 52.197 76.392 18.363 90.68v691.922H26275l84.714 15.94 77.804 50.066 52.197 76.392 18.363 90.68v300l-15.94 84.714-50.066 77.804-17.592 12.02 13.038 8.39 8.385 12.272h321.019v-20.2"/><path d="M26218.914-18274.714l1.745-4.212 32.777-79.132 130.062-194.65.002-.004 63.788-63.788 194.654-130.064 83.343-34.522 229.61-45.672 45.105.001 45.105-.001 229.609 45.672.002.001 12.994 5.382 26.655 11.041 43.693 18.098 194.65 130.062.004.002 63.788 63.788 130.064 194.654 34.522 83.343v.001l8.656 43.514h7.865l-3.807-18.8v-930.514l-.002.005-64.306 64.306-84.02 34.803H27357.2l-57.15-57.15v-371.4h20v-.1h-20v-20h-.1v20h-471.4l-57.15-57.15v-88h-6.4l-116.642-23.202-98.884-66.072-460.726-460.726H24940l-116.642-23.202-98.884-66.072-222.448-222.448H24400l-84.714-15.94-77.804-50.066-12.691-18.574-45.299 45.299-.193.08 578.409 578.41.003.002 82.07 122.827L24868.6-19710v445.471h1902.8v-188.271l57.15-57.15h471.4v371.4l-57.15 57.15h-288.272l-84.02-34.803-64.306-64.306-34.802-84.02h-1902.8v125.567l69.264 69.143 80.644 194.213.184 210.29-80.305 194.353-148.568 148.827-194.213 80.644-210.29.184-194.353-80.305-148.827-148.568-67.983-163.721-51.851 77.601-354.335 236.759-417.967 83.139-417.967-83.139-354.335-236.759-236.759-354.335-83.139-417.967v-42.794l83.139-417.967 154.261-230.868v-557.73l-7.718-4.966-12.02-17.592-8.39 13.038-12.272 8.385v29.097l-23.202 116.642-66.072 98.884-546.24 546.24 82.914 416.837v42.794l-83.139 417.967-236.759 354.335-354.335 236.759-417.967 83.139-417.967-83.139-354.335-236.759-236.759-354.335-83.139-417.967v-42.794l83.139-417.967 236.759-354.335 354.335-236.759 417.967-83.139 417.967 83.139 192.689 128.75 382.077-382.077-17.448-25.535-18.363-90.68v-691.922H20875l-84.714-15.94-31.258-20.114-375.95 375.95V-20700l-15.94 84.714-50.066 77.804-76.392 52.197-90.68 18.363h-400l-84.714-15.94-77.804-50.066-52.197-76.392-18.363-90.68v-600l15.94-84.714 50.066-77.804 76.392-52.197 90.68-18.363h202.026l242.952-242.952-44.978 9.108h-400l-84.714-15.94-77.804-50.066-52.197-76.392-18.363-90.68v-600l15.94-84.714 50.066-77.804 76.392-52.197 90.68-18.363h400l84.714 15.94 58.024 37.338h410.224l4.966-7.718 18.574-12.691-45.299-45.299-34.803-84.02v-138.272l57.15-57.15h546.4v20h.1v-20h20v-.1h-20v-20h-.1v20h-546.4l-57.15-57.15v-138.272l34.803-84.02 44.761-44.761-13.482-8.675-52.197-76.392-18.363-90.68v-52.026l-589.896-589.896H19575l-84.714-15.94-77.804-50.066-52.197-76.392-18.363-90.68v-227.026l-33.844-33.844v260.87l-15.94 84.714-50.066 77.804-76.392 52.197-39.48 7.995v253.846l33.514 6.306 77.804 50.066 52.197 76.392 18.363 90.68v192.8h38.322v-238.272l34.803-84.02 64.306-64.306 84.02-34.802h288.271l57.15 57.15v421.4h.1v-421.4l57.15-57.15h288.271l84.02 34.802 64.306 64.306 34.803 84.02v238.272l-57.15 57.15h-942.9l-57.15-57.15h-38.322v307.2l-8.556 45.472h46.878v-238.272l57.15-57.15h471.4v421.4h.1v-421.4h471.4l57.15 57.15v238.272l-34.803 84.02-64.306 64.306-84.02 34.802H19932.2l-57.15-57.15h-.1l-57.15 57.15h-288.271l-84.02-34.802-64.306-64.306-34.803-84.02h-46.878l-7.384 39.242-50.066 77.804-76.392 52.197-39.48 7.995v244.212h123.8l84.714 15.94 77.804 50.066 52.197 76.392 18.363 90.68v600l-15.94 84.714-50.066 77.804-76.392 52.197-90.68 18.363h-123.8v233.844h123.8l84.714 15.94 77.804 50.066 52.197 76.392 18.363 90.68v600l-15.94 84.714-50.066 77.804-76.392 52.197-90.68 18.363h-108.683l6.998 10.242 18.363 90.68v2032l-15.94 84.714-11.638 18.086h7071.159l8.655-43.514"/><path fill="none" stroke-width="152.4" d="M26218.914-18274.714l1.745-4.212 32.777-79.132 130.062-194.65.002-.004 63.788-63.788 194.654-130.064 83.343-34.522 229.61-45.672 45.105.001 45.105-.001 229.609 45.672.002.001 12.994 5.382 26.655 11.041 43.693 18.098 194.65 130.062.004.002 63.788 63.788 130.064 194.654 34.522 83.343v.001l8.656 43.514h7.865l-3.807-18.8v-930.514l-.002.005-64.306 64.306-84.02 34.803H27357.2l-57.15-57.15v-371.4h20v-.1h-20v-20h-.1v20h-471.4l-57.15-57.15v-88h-6.4l-116.642-23.202-98.884-66.072-460.726-460.726H24940l-116.642-23.202-98.884-66.072-222.448-222.448H24400l-84.714-15.94-77.804-50.066-12.691-18.574-45.299 45.299-.193.08 578.409 578.41.003.002 82.07 122.827L24868.6-19710v445.471h1902.8v-188.271l57.15-57.15h471.4v371.4l-57.15 57.15h-288.272l-84.02-34.803-64.306-64.306-34.802-84.02h-1902.8v125.567l69.264 69.143 80.644 194.213.184 210.29-80.305 194.353-148.568 148.827-194.213 80.644-210.29.184-194.353-80.305-148.827-148.568-67.983-163.721-51.851 77.601-354.335 236.759-417.967 83.139-417.967-83.139-354.335-236.759-236.759-354.335-83.139-417.967v-42.794l83.139-417.967 154.261-230.868v-557.73l-7.718-4.966-12.02-17.592-8.39 13.038-12.272 8.385v29.097l-23.202 116.642-66.072 98.884-546.24 546.24 82.914 416.837v42.794l-83.139 417.967-236.759 354.335-354.335 236.759-417.967 83.139-417.967-83.139-354.335-236.759-236.759-354.335-83.139-417.967v-42.794l83.139-417.967 236.759-354.335 354.335-236.759 417.967-83.139 417.967 83.139 192.689 128.75 382.077-382.077-17.448-25.535-18.363-90.68v-691.922H20875l-84.714-15.94-31.258-20.114-375.95 375.95V-20700l-15.94 84.714-50.066 77.804-76.392 52.197-90.68 18.363h-400l-84.714-15.94-77.804-50.066-52.197-76.392-18.363-90.68v-600l15.94-84.714 50.066-77.804 76.392-52.197 90.68-18.363h202.026l242.952-242.952-44.978 9.108h-400l-84.714-15.94-77.804-50.066-52.197-76.392-18.363-90.68v-600l15.94-84.714 50.066-77.804 76.392-52.197 90.68-18.363h400l84.714 15.94 58.024 37.338h410.224l4.966-7.718 18.574-12.691-45.299-45.299-34.803-84.02v-138.272l57.15-57.15h546.4v20h.1v-20h20v-.1h-20v-20h-.1v20h-546.4l-57.15-57.15v-138.272l34.803-84.02 44.761-44.761-13.482-8.675-52.197-76.392-18.363-90.68v-52.026l-589.896-589.896H19575l-84.714-15.94-77.804-50.066-52.197-76.392-18.363-90.68v-227.026l-33.844-33.844v260.87l-15.94 84.714-50.066 77.804-76.392 52.197-39.48 7.995v253.846l33.514 6.306 77.804 50.066 52.197 76.392 18.363 90.68v192.8h38.322v-238.272l34.803-84.02 64.306-64.306 84.02-34.802h288.271l57.15 57.15v421.4h.1v-421.4l57.15-57.15h288.271l84.02 34.802 64.306 64.306 34.803 84.02v238.272l-57.15 57.15h-942.9l-57.15-57.15h-38.322v307.2l-8.556 45.472h46.878v-238.272l57.15-57.15h471.4v421.4h.1v-421.4h471.4l57.15 57.15v238.272l-34.803 84.02-64.306 64.306-84.02 34.802H19932.2l-57.15-57.15h-.1l-57.15 57.15h-288.271l-84.02-34.802-64.306-64.306-34.803-84.02h-46.878l-7.384 39.242-50.066 77.804-76.392 52.197-39.48 7.995v244.212h123.8l84.714 15.94 77.804 50.066 52.197 76.392 18.363 90.68v600l-15.94 84.714-50.066 77.804-76.392 52.197-90.68 18.363h-123.8v233.844h123.8l84.714 15.94 77.804 50.066 52.197 76.392 18.363 90.68v600l-15.94 84.714-50.066 77.804-76.392 52.197-90.68 18.363h-108.683l6.998 10.242 18.363 90.68v2032l-15.94 84.714-11.638 18.086h7071.159l8.655-43.514"/><path d="M26654.474-22315.526l98.884-66.072 31.535-6.273 48.035-74.647 76.392-52.197 90.68-18.363h600l77.452 14.574 116.348-116.348v-56.603l-168.484.147-194.353-80.305-148.468-148.21-43.335-8.62h-739.842l-7.18 38.157-50.066 77.804-18.574 12.691 45.299 45.299 34.803 84.02v138.272l-57.15 57.15h-546.4v-20h-.1v20h-20v.1h20v20h.1v-20h546.4l57.15 57.15v138.272l-34.803 84.02-44.761 44.761 13.482 8.675 8.385 12.272h22.845l185.726-185.726"/><path fill="none" stroke-width="152.4" d="M26654.474-22315.526l98.884-66.072 31.535-6.273 48.035-74.647 76.392-52.197 90.68-18.363h600l77.452 14.574 116.348-116.348v-56.603l-168.484.147-194.353-80.305-148.468-148.21-43.335-8.62h-739.842l-7.18 38.157-50.066 77.804-18.574 12.691 45.299 45.299 34.803 84.02v138.272l-57.15 57.15h-546.4v-20h-.1v20h-20v.1h20v20h.1v-20h546.4l57.15 57.15v138.272l-34.803 84.02-44.761 44.761 13.482 8.675 8.385 12.272h22.845l185.726-185.726"/><path d="M23900.05-21124.95h20v-.1h-20v-20h-.1v20h-20v.1h20v20h.1v-20"/><path fill="none" stroke-width="152.4" d="M23900.05-21124.95h20v-.1h-20v-20h-.1v20h-20v.1h20v20h.1v-20"/></g><g id="pcb-stackup_bottom_sm"><path d="M28500-22750h1750v4250h-1750v-4250"/><path fill="none" stroke-width="100" d="M28500-22750h1750v4250h-1750v-4250"/><path d="M28500-28500v4500h1750v-4500h-1750"/><path fill="none" stroke-width="100" d="M28500-28500v4500h1750v-4500h-1750"/><path d="M18673.6-28416h-1227.2v1532h1227.2v-1532M20723.333-27045.957l.01-.003.038-.004 114.399-35.412 105.341-56.958 92.272-76.333 75.687-92.803 56.221-105.736 34.613-114.643 11.686-119.182v-5.938l-.06-8.567-13.349-119.008-36.21-114.148-57.691-104.941-76.977-91.736-93.328-75.039-106.126-55.481-114.882-33.811-.029-.003-.018-.005-119.211-10.849-119.052 12.514-.01.003-.038.004-114.399 35.412-105.341 56.958-92.272 76.333-75.687 92.803-56.221 105.736-34.613 114.643-11.686 119.182v5.938l.06 8.567 13.349 119.008 36.21 114.148 57.691 104.941 76.977 91.736 93.328 75.039 106.126 55.481 114.882 33.811.029.003.018.005 119.211 10.849 119.052-12.514M25803.333-27045.957l.01-.003.038-.004 114.399-35.412 105.341-56.958 92.272-76.333 75.687-92.803 56.221-105.736 34.613-114.643 11.686-119.182v-5.938l-.06-8.567-13.349-119.008-36.21-114.148-57.691-104.941-76.977-91.736-93.328-75.039-106.126-55.481-114.882-33.811-.029-.003-.018-.005-119.211-10.849-119.052 12.514-.01.003-.038.004-114.399 35.412-105.341 56.958-92.272 76.333-75.687 92.803-56.221 105.736-34.613 114.643-11.686 119.182v5.938l.06 8.567 13.349 119.008 36.21 114.148 57.691 104.941 76.977 91.736 93.328 75.039 106.126 55.481 114.882 33.811.029.003.018.005 119.211 10.849 119.052-12.514M23263.333-27045.957l.01-.003.038-.004 114.399-35.412 105.341-56.958 92.272-76.333 75.687-92.803 56.221-105.736 34.613-114.643 11.686-119.182v-5.938l-.06-8.567-13.349-119.008-36.21-114.148-57.691-104.941-76.977-91.736-93.328-75.039-106.126-55.481-114.882-33.811-.029-.003-.018-.005-119.211-10.849-119.052 12.514-.01.003-.038.004-114.399 35.412-105.341 56.958-92.272 76.333-75.687 92.803-56.221 105.736-34.613 114.643-11.686 119.182v5.938l.06 8.567 13.349 119.008 36.21 114.148 57.691 104.941 76.977 91.736 93.328 75.039 106.126 55.481 114.882 33.811.029.003.018.005 119.211 10.849 119.052-12.514M27700-27650h-800v600h800v-600M27700-26750h-800v600h800v-600M19175-26300h-800v700h800v-700M20275-26300h-800v700h800v-700M21725-25250l1.98-13.93 5.781-12.826 9.127-10.708 11.748-7.742 13.44-4.162 7.924-.632h425v-950h-500v875l-1.98 13.93-5.781 12.826-9.127 10.708-11.748 7.742-13.44 4.162-7.924.632h-875v500h950v-425M22850-26250h-500v950h500v-950M23500-26250h-500v950h500v-950M24150-26250h-500v950h500v-950M26375-25325h-875l-13.93-1.98-12.826-5.781-10.708-9.127-7.742-11.748-4.162-13.44-.632-7.924v-875h-500v950h425l13.93 1.98 12.826 5.781 10.708 9.127 7.742 11.748 4.162 13.44.632 7.924v425h950v-500M24800-26250h-500v950h500v-950M27700-25750h-800v600h800v-600"/><path d="M25275-25150h-3400v3400h3400v-3400M19175-25100h-800v700h800v-700M20275-25100h-800v700h800v-700M27700-24850h-800v600h800v-600M21725-24675h-950v500h950v-500M26375-24675h-950v500h950v-500M21725-24025h-950v500h950v-500M26375-24025h-950v500h950v-500M20275-23900h-800v700h800v-700M19175-23900h-800v700h800v-700M26375-23375h-950v500h950v-500M21725-23375h-950v500h950v-500M26375-22725h-950v500h950v-500M21725-22725h-950v500h950v-500M19350-22700h-600v800h600v-800M20250-22700h-600v800h600v-800M27700-22400h-800v600h800v-600"/><path d="M25450-21525l1.98-13.93 5.781-12.826 9.127-10.708 11.748-7.742 13.44-4.162 7.924-.632h875v-500h-950v425l-1.98 13.93-5.781 12.826-9.127 10.708-11.748 7.742-13.44 4.162-7.924.632h-425v950h500v-875M22200-21600h-425l-13.93-1.98-12.826-5.781-10.708-9.127-7.742-11.748-4.162-13.44-.632-7.924v-425h-950v500h875l13.93 1.98 12.826 5.781 10.708 9.127 7.742 11.748 4.162 13.44.632 7.924v875h500v-950M23500-21600h-500v950h500v-950M24800-21600h-500v950h500v-950M24150-21600h-500v950h500v-950M22850-21600h-500v950h500v-950M27700-21500h-800v600h800v-600M20250-21400h-600v800h600v-800M19350-21400h-600v800h600v-800M27700-20710h-800v600h800v-600M18683.6-20116h-1227.2v1532h1227.2v-1532M20733.333-18745.957l.01-.003.038-.004 114.399-35.412 105.341-56.958 92.272-76.333 75.687-92.803 56.221-105.736 34.613-114.643 11.686-119.182v-5.938l-.06-8.567-13.349-119.008-36.21-114.148-57.691-104.941-76.977-91.736-93.328-75.039-106.126-55.481-114.882-33.811-.029-.003-.018-.005-119.211-10.849-119.052 12.514-.01.003-.038.004-114.399 35.412-105.341 56.958-92.272 76.333-75.687 92.803-56.221 105.736-34.613 114.643-11.686 119.182v5.938l.06 8.567 13.349 119.008 36.21 114.148 57.691 104.941 76.977 91.736 93.328 75.039 106.126 55.481 114.882 33.811.029.003.018.005 119.211 10.849 119.052-12.514M23273.333-18745.957l.01-.003.038-.004 114.399-35.412 105.341-56.958 92.272-76.333 75.687-92.803 56.221-105.736 34.613-114.643 11.686-119.182v-5.938l-.06-8.567-13.349-119.008-36.21-114.148-57.691-104.941-76.977-91.736-93.328-75.039-106.126-55.481-114.882-33.811-.029-.003-.018-.005-119.211-10.849-119.052 12.514-.01.003-.038.004-114.399 35.412-105.341 56.958-92.272 76.333-75.687 92.803-56.221 105.736-34.613 114.643-11.686 119.182v5.938l.06 8.567 13.349 119.008 36.21 114.148 57.691 104.941 76.977 91.736 93.328 75.039 106.126 55.481 114.882 33.811.029.003.018.005 119.211 10.849 119.052-12.514M25813.333-18745.957l.01-.003.038-.004 114.399-35.412 105.341-56.958 92.272-76.333 75.687-92.803 56.221-105.736 34.613-114.643 11.686-119.182v-5.938l-.06-8.567-13.349-119.008-36.21-114.148-57.691-104.941-76.977-91.736-93.328-75.039-106.126-55.481-114.882-33.811-.029-.003-.018-.005-119.211-10.849-119.052 12.514-.01.003-.038.004-114.399 35.412-105.341 56.958-92.272 76.333-75.687 92.803-56.221 105.736-34.613 114.643-11.686 119.182v5.938l.06 8.567 13.349 119.008 36.21 114.148 57.691 104.941 76.977 91.736 93.328 75.039 106.126 55.481 114.882 33.811.029.003.018.005 119.211 10.849 119.052-12.514M27700-19810h-800v600h800v-600"/></g><g id="pcb-stackup_bottom_sp"><use x="18060" y="-27650" xlink:href="#BJZpL6o1dG_pad-11"/><use x="20600" y="-27650" xlink:href="#BJZpL6o1dG_pad-12"/><use x="23140" y="-27650" xlink:href="#BJZpL6o1dG_pad-12"/><use x="25680" y="-27650" xlink:href="#BJZpL6o1dG_pad-12"/><use x="27300" y="-25450" xlink:href="#BJZpL6o1dG_pad-13"/><use x="27300" y="-24550" xlink:href="#BJZpL6o1dG_pad-13"/><use x="27300" y="-20410" xlink:href="#BJZpL6o1dG_pad-13"/><use x="27300" y="-19510" xlink:href="#BJZpL6o1dG_pad-13"/><use x="18775" y="-25950" xlink:href="#BJZpL6o1dG_pad-14"/><use x="19875" y="-25950" xlink:href="#BJZpL6o1dG_pad-14"/><use x="19875" y="-23550" xlink:href="#BJZpL6o1dG_pad-14"/><use x="18775" y="-23550" xlink:href="#BJZpL6o1dG_pad-14"/><use x="19875" y="-24750" xlink:href="#BJZpL6o1dG_pad-14"/><use x="18775" y="-24750" xlink:href="#BJZpL6o1dG_pad-14"/><use x="27300" y="-26450" xlink:href="#BJZpL6o1dG_pad-13"/><use x="27300" y="-27350" xlink:href="#BJZpL6o1dG_pad-13"/><use x="27300" y="-22100" xlink:href="#BJZpL6o1dG_pad-13"/><use x="27300" y="-21200" xlink:href="#BJZpL6o1dG_pad-13"/><use x="19050" y="-22300" xlink:href="#BJZpL6o1dG_pad-15"/><use x="19950" y="-22300" xlink:href="#BJZpL6o1dG_pad-15"/><use x="19050" y="-21000" xlink:href="#BJZpL6o1dG_pad-15"/><use x="19950" y="-21000" xlink:href="#BJZpL6o1dG_pad-15"/><use x="18070" y="-19350" xlink:href="#BJZpL6o1dG_pad-11"/><use x="20610" y="-19350" xlink:href="#BJZpL6o1dG_pad-12"/><use x="23150" y="-19350" xlink:href="#BJZpL6o1dG_pad-12"/><use x="25690" y="-19350" xlink:href="#BJZpL6o1dG_pad-12"/><use x="25900" y="-21825" xlink:href="#BJZpL6o1dG_pad-16"/><use x="25900" y="-22475" xlink:href="#BJZpL6o1dG_pad-16"/><use x="25900" y="-23125" xlink:href="#BJZpL6o1dG_pad-16"/><use x="25900" y="-23775" xlink:href="#BJZpL6o1dG_pad-16"/><use x="25900" y="-24425" xlink:href="#BJZpL6o1dG_pad-16"/><use x="25900" y="-25075" xlink:href="#BJZpL6o1dG_pad-16"/><use x="25200" y="-25775" xlink:href="#BJZpL6o1dG_pad-17"/><use x="24550" y="-25775" xlink:href="#BJZpL6o1dG_pad-17"/><use x="23900" y="-25775" xlink:href="#BJZpL6o1dG_pad-17"/><use x="23250" y="-25775" xlink:href="#BJZpL6o1dG_pad-17"/><use x="22600" y="-25775" xlink:href="#BJZpL6o1dG_pad-17"/><use x="21950" y="-25775" xlink:href="#BJZpL6o1dG_pad-17"/><use x="21250" y="-25075" xlink:href="#BJZpL6o1dG_pad-16"/><use x="21250" y="-24425" xlink:href="#BJZpL6o1dG_pad-16"/><use x="21250" y="-23775" xlink:href="#BJZpL6o1dG_pad-16"/><use x="21250" y="-23125" xlink:href="#BJZpL6o1dG_pad-16"/><use x="21250" y="-22475" xlink:href="#BJZpL6o1dG_pad-16"/><use x="21250" y="-21825" xlink:href="#BJZpL6o1dG_pad-16"/><use x="21950" y="-21125" xlink:href="#BJZpL6o1dG_pad-17"/><use x="22600" y="-21125" xlink:href="#BJZpL6o1dG_pad-17"/><use x="23250" y="-21125" xlink:href="#BJZpL6o1dG_pad-17"/><use x="23900" y="-21125" xlink:href="#BJZpL6o1dG_pad-17"/><use x="24550" y="-21125" xlink:href="#BJZpL6o1dG_pad-17"/><use x="25200" y="-21125" xlink:href="#BJZpL6o1dG_pad-17"/><use x="22775" y="-24250" xlink:href="#BJZpL6o1dG_pad-18"/><use x="22775" y="-22650" xlink:href="#BJZpL6o1dG_pad-18"/><use x="24375" y="-24250" xlink:href="#BJZpL6o1dG_pad-18"/><use x="24375" y="-22650" xlink:href="#BJZpL6o1dG_pad-18"/></g><g id="pcb-stackup_bottom_ss"><path fill="none" stroke-width="250" d="M22161.905-19827.381v1000h-238.095l-142.858-47.619-95.238-95.238-47.619-95.238-47.619-190.476v-142.858l47.619-190.476 47.619-95.238 95.238-95.238 142.858-47.619h238.095m-3121.429 95.238l47.619-47.619 142.857-47.619h95.238l142.858 47.619 95.238 95.238 47.619 95.238 47.619 190.476v142.858l-47.619 190.476-47.619 95.238-95.238 95.238-142.858 47.619h-95.238l-142.857-47.619-47.619-47.619m3145.238-8254.762h-571.429m285.715-1000v1000m-2859.524-1000l333.334 476.191m238.095-476.191v1000h-380.953l-95.238-47.619-47.619-47.619-47.619-95.238v-142.857l47.619-95.238 47.619-47.619 95.238-47.619h380.953"/><path fill="none" stroke-width="150" d="M27825-24750v-500m-1050 0v500m525 4690l-250 200m500 0l-250-200m525 350v-1050m-1050 1050v-1050m-7200-5665h-500m0 950h500m-500 2400h500m0-950h-500m0-250h500m0-950h-500m8225-1575l250-200m-500 0l250 200m-525-350v1050m1050-1050v1050m0 4700v-500m-1050 0v500m-7025-1425h-500m0 1050h500m0 250h-500m0 1050h500m1200-350v-625m5250-4625v625m-5250-625v625m5250 4625h-625m625-5250h-625m-4625 0h625m-625 5250h625m-3875-5339.286l28.571-28.571 85.714-28.572h57.143l85.715 28.572 57.142 57.143 28.572 57.143 28.571 114.285v85.715l-28.571 114.285-28.572 57.143-57.142 57.143-85.715 28.571h-57.143l-85.714-28.571-28.571-28.571m-571.429-542.858h342.857m-171.428 0v600l57.143-85.714 57.142-57.143 57.143-28.571M17825-23764.286l28.571-28.571 85.714-28.572h57.143l85.715 28.572 57.142 57.143 28.572 57.143 28.571 114.285v85.715l-28.571 114.285-28.572 57.143-57.142 57.143-85.715 28.571h-57.143l-85.714-28.571-28.571-28.571m-228.572 0l-28.571 28.571-57.143 28.571h-142.857l-57.143-28.571-28.571-28.571-28.572-57.143v-57.143l28.572-85.714 342.857-342.858h-371.429M17825-24964.286l28.571-28.571 85.714-28.572h57.143l85.715 28.572 57.142 57.143 28.572 57.143 28.571 114.285v85.715l-28.571 114.285-28.572 57.143-57.142 57.143-85.715 28.571h-57.143l-85.714-28.571-28.571-28.571m-200 57.142h-371.429l200-228.571h-85.714l-57.143-28.571-28.571-28.572-28.572-57.143v-142.857l28.572-57.143 28.571-28.571 57.143-28.572h171.428l57.143 28.572 28.572 28.571m575 2392.857l200 285.715m142.857-285.715v600h-228.572l-57.142-28.571-28.572-28.571-28.571-57.143v-85.715l28.571-57.142 28.572-28.572 57.142-28.571h228.572M18000-21971.429h-371.429l200-228.571h-85.714l-57.143-28.571-28.571-28.572-28.572-57.143v-142.857l28.572-57.143 28.571-28.571 57.143-28.572h171.428l57.143 28.572 28.572 28.571m200 1242.857l200 285.715m142.857-285.715v600h-228.572l-57.142-28.571-28.572-28.571-28.571-57.143v-85.715l28.571-57.142 28.572-28.572 57.142-28.571h228.572m-857.143 114.285v-400m142.857 628.572l142.857-428.572H17600m6736.905 1869.048v-809.524l-47.619-95.238-47.619-47.619-95.238-47.619h-190.477l-95.238 47.619-47.619 47.619-47.619 95.238v809.524m-1000-1000h571.429m-285.714 0v1000l95.238-142.857 95.238-95.238 95.238-47.619"/></g><g id="pcb-stackup_bottom_drl1" transform="scale(25.4)"><use x="698.8" y="-1023.6" xlink:href="#rJ_TITj1dG_pad-1"/><use x="698.8" y="-826.8" xlink:href="#rJ_TITj1dG_pad-1"/><use x="704.7" y="-863.2" xlink:href="#rJ_TITj1dG_pad-1"/><use x="704.7" y="-941.9" xlink:href="#rJ_TITj1dG_pad-1"/><use x="964.2" y="-739" xlink:href="#rJ_TITj1dG_pad-1"/><use x="1031.6" y="-732.3" xlink:href="#rJ_TITj1dG_pad-1"/><use x="1031.6" y="-1019.7" xlink:href="#rJ_TITj1dG_pad-1"/><use x="1055" y="-893.9" xlink:href="#rJ_TITj1dG_pad-1"/><use x="1091.7" y="-914.2" xlink:href="#rJ_TITj1dG_pad-1"/><use x="1114.2" y="-805.1" xlink:href="#rJ_TITj1dG_pad-1"/><use x="1114.2" y="-1043.3" xlink:href="#rJ_TITj1dG_pad-1"/><use x="1122" y="-857.9" xlink:href="#rJ_TITj1dG_pad-1"/><use x="1122" y="-993.3" xlink:href="#rJ_TITj1dG_pad-1"/></g><clipPath id="pcb-stackup_bottom_out"><path fill="none" stroke-width="50" d="M26100-29000a600 600 0 0 0 1200 0h1700l50 10 50 20 50 30 50 50 40 50 30 40 40 80 30 40 20 50 20 50 30 50 20 60 20 60 20 60 20 60 20 70 20 70 30 80 20 70 20 80 20 80 10 90 20 90 20 80 20 100 20 90 10 100 20 100 20 100 10 100 20 110 10 100 20 110 10 110 10 120 20 110 10 120 10 120 10 120 10 120 10 120 10 130 10 120 10 130 10 120 10 130v130l10 130 10 130v140l10 130v270l10 130v1080l-10 130v270l-10 130v140l-10 130-10 130v130l-10 130-10 120-10 130-10 120-10 130-10 120-10 120-10 120-10 120-10 120-20 110-10 120-10 110-20 110-10 100-20 110-10 100-20 100-20 100-10 100-20 90-20 100-20 80-20 90-10 90-20 80-20 80-20 70-30 80-20 70-20 70-20 60-20 60-20 60-20 60-30 50-20 50-20 50-30 40-40 80-30 40-40 50-50 50-50 30-50 20-50 10h-1400a600 600 0 0 0-1200 0h-8900a500 500 0 0 1-500-500v-10000a500 500 0 0 1 500-500h8600m3300 6350v-1700a400 400 0 0 0-800 0v1700a400 400 0 0 0 800 0"/></clipPath><mask id="pcb-stackup_bottom_mech-mask"><g stroke="#000"><path fill="#fff" d="M17000-29000h13000v11000H17000z"/><use xlink:href="#pcb-stackup_bottom_drl1"/></g></mask><mask id="pcb-stackup_bottom_cf-mask"><g fill="#fff" stroke="#fff"><use xlink:href="#pcb-stackup_bottom_sm"/></g></mask><mask id="pcb-stackup_bottom_sm-mask"><g stroke="#000"><path fill="#fff" d="M17000-29000h13000v11000H17000z"/><use xlink:href="#pcb-stackup_bottom_sm"/></g></mask></defs><g><g mask="url(#pcb-stackup_bottom_mech-mask)" clip-path="url(#pcb-stackup_bottom_out)" transform="rotate(180 23500 -23500)"><path fill="currentColor" d="M17000-29000h13000v11000H17000z" class="pcb-stackup_fr4"/><use fill="currentColor" stroke="currentColor" xlink:href="#pcb-stackup_bottom_cu" class="pcb-stackup_cu"/><use fill="currentColor" stroke="currentColor" xlink:href="#pcb-stackup_bottom_cu" class="pcb-stackup_cf" mask="url(#pcb-stackup_bottom_cf-mask)"/><g mask="url(#pcb-stackup_bottom_sm-mask)"><path fill="currentColor" d="M17000-29000h13000v11000H17000z" class="pcb-stackup_sm"/><use fill="currentColor" stroke="currentColor" xlink:href="#pcb-stackup_bottom_ss" class="pcb-stackup_ss"/></g><use fill="currentColor" stroke="currentColor" xlink:href="#pcb-stackup_bottom_sp" class="pcb-stackup_sp"/></g></g></svg>