<svg xmlns="http://www.w3.org/2000/svg" id="pcb-stackup_top" fill-rule="evenodd" stroke-width="0" stroke-linecap="round" stroke-linejoin="round" xmlns:xlink="http://www.w3.org/1999/xlink" clip-rule="evenodd" viewBox="17000 -29000 13000 11000"><defs><style>.pcb-stackup_fr4 {color: #4D542C;} .pcb-stackup_cu {color: lightgrey;} .pcb-stackup_cf {color: goldenrod;} .pcb-stackup_sm {color: #004400; opacity: 0.9;} .pcb-stackup_ss {color: white;} .pcb-stackup_sp {color: #000000; opacity: 0;} .pcb-stackup_out {color: black;}</style><path id="B1E6Iaok_f_pad-11" d="M-3750-1562.5h7500v3125h-7500z"/><path id="B1E6Iaok_f_pad-12" d="M-3750-875h7500V875h-7500z"/><path id="B1E6Iaok_f_pad-13" d="M-500-500H500V500H-500z"/><circle id="B1E6Iaok_f_pad-14" r="300"/><path id="B1E6Iaok_f_pad-11" d="M-3750-1562.5h7500v3125h-7500z"/><path id="B1E6Iaok_f_pad-12" d="M-3750-875h7500V875h-7500z"/><path id="B1E6Iaok_f_pad-13" d="M-500-500H500V500H-500z"/><circle id="B1E6Iaok_f_pad-14" r="300"/><path id="B1E6Iaok_f_pad-11" d="M-3750-1562.5h7500v3125h-7500z"/><path id="B1E6Iaok_f_pad-12" d="M-3750-875h7500V875h-7500z"/><path id="B1E6Iaok_f_pad-13" d="M-500-500H500V500H-500z"/><circle id="B1E6Iaok_f_pad-14" r="300"/><path id="B1E6Iaok_f_pad-11" d="M-3750-1562.5h7500v3125h-7500z"/><path id="B1E6Iaok_f_pad-12" d="M-3750-875h7500V875h-7500z"/><path id="B1E6Iaok_f_pad-13" d="M-500-500H500V500H-500z"/><circle id="B1E6Iaok_f_pad-14" r="300"/><path id="B1E6Iaok_f_pad-11" d="M-3750-1562.5h7500v3125h-7500z"/><path id="B1E6Iaok_f_pad-12" d="M-3750-875h7500V875h-7500z"/><path id="B1E6Iaok_f_pad-13" d="M-500-500H500V500H-500z"/><circle id="B1E6Iaok_f_pad-14" r="300"/><path id="B1E6Iaok_f_pad-11" d="M-3750-1562.5h7500v3125h-7500z"/><path id="B1E6Iaok_f_pad-12" d="M-3750-875h7500V875h-7500z"/><path id="B1E6Iaok_f_pad-13" d="M-500-500H500V500H-500z"/><circle id="B1E6Iaok_f_pad-14" r="300"/><path id="B1E6Iaok_f_pad-11" d="M-3750-1562.5h7500v3125h-7500z"/><path id="B1E6Iaok_f_pad-12" d="M-3750-875h7500V875h-7500z"/><path id="B1E6Iaok_f_pad-13" d="M-500-500H500V500H-500z"/><circle id="B1E6Iaok_f_pad-14" r="300"/><path id="B1E6Iaok_f_pad-11" d="M-3750-1562.5h7500v3125h-7500z"/><path id="B1E6Iaok_f_pad-12" d="M-3750-875h7500V875h-7500z"/><path id="B1E6Iaok_f_pad-13" d="M-500-500H500V500H-500z"/><circle id="B1E6Iaok_f_pad-14" r="300"/><path id="B1E6Iaok_f_pad-11" d="M-3750-1562.5h7500v3125h-7500z"/><path id="B1E6Iaok_f_pad-12" d="M-3750-875h7500V875h-7500z"/><path id="B1E6Iaok_f_pad-13" d="M-500-500H500V500H-500z"/><circle id="B1E6Iaok_f_pad-14" r="300"/><path id="B1E6Iaok_f_pad-11" d="M-3750-1562.5h7500v3125h-7500z"/><path id="B1E6Iaok_f_pad-12" d="M-3750-875h7500V875h-7500z"/><path id="B1E6Iaok_f_pad-13" d="M-500-500H500V500H-500z"/><circle id="B1E6Iaok_f_pad-14" r="300"/><path id="B1E6Iaok_f_pad-11" d="M-3750-1562.5h7500v3125h-7500z"/><path id="B1E6Iaok_f_pad-12" d="M-3750-875h7500V875h-7500z"/><path id="B1E6Iaok_f_pad-13" d="M-500-500H500V500H-500z"/><circle id="B1E6Iaok_f_pad-14" r="300"/><path id="B1E6Iaok_f_pad-11" d="M-3750-1562.5h7500v3125h-7500z"/><path id="B1E6Iaok_f_pad-12" d="M-3750-875h7500V875h-7500z"/><path id="B1E6Iaok_f_pad-13" d="M-500-500H500V500H-500z"/><circle id="B1E6Iaok_f_pad-14" r="300"/><path id="B1E6Iaok_f_pad-11" d="M-3750-1562.5h7500v3125h-7500z"/><path id="B1E6Iaok_f_pad-12" d="M-3750-875h7500V875h-7500z"/><path id="B1E6Iaok_f_pad-13" d="M-500-500H500V500H-500z"/><circle id="B1E6Iaok_f_pad-14" r="300"/><path id="B1E6Iaok_f_pad-11" d="M-3750-1562.5h7500v3125h-7500z"/><path id="B1E6Iaok_f_pad-12" d="M-3750-875h7500V875h-7500z"/><path id="B1E6Iaok_f_pad-13" d="M-500-500H500V500H-500z"/><circle id="B1E6Iaok_f_pad-14" r="300"/><path id="B1E6Iaok_f_pad-11" d="M-3750-1562.5h7500v3125h-7500z"/><path id="B1E6Iaok_f_pad-12" d="M-3750-875h7500V875h-7500z"/><path id="B1E6Iaok_f_pad-13" d="M-500-500H500V500H-500z"/><circle id="B1E6Iaok_f_pad-14" r="300"/><path id="B1E6Iaok_f_pad-11" d="M-3750-1562.5h7500v3125h-7500z"/><path id="B1E6Iaok_f_pad-12" d="M-3750-875h7500V875h-7500z"/><path id="B1E6Iaok_f_pad-13" d="M-500-500H500V500H-500z"/><circle id="B1E6Iaok_f_pad-14" r="300"/><circle id="rJ_TITj1dG_pad-1" r="6"/><path id="B1E6Iaok_f_pad-11" d="M-3750-1562.5h7500v3125h-7500z"/><path id="B1E6Iaok_f_pad-12" d="M-3750-875h7500V875h-7500z"/><path id="B1E6Iaok_f_pad-13" d="M-500-500H500V500H-500z"/><circle id="B1E6Iaok_f_pad-14" r="300"/><path id="B1E6Iaok_f_pad-11" d="M-3750-1562.5h7500v3125h-7500z"/><path id="B1E6Iaok_f_pad-12" d="M-3750-875h7500V875h-7500z"/><path id="B1E6Iaok_f_pad-13" d="M-500-500H500V500H-500z"/><circle id="B1E6Iaok_f_pad-14" r="300"/><path id="B1E6Iaok_f_pad-11" d="M-3750-1562.5h7500v3125h-7500z"/><path id="B1E6Iaok_f_pad-12" d="M-3750-875h7500V875h-7500z"/><path id="B1E6Iaok_f_pad-13" d="M-500-500H500V500H-500z"/><circle id="B1E6Iaok_f_pad-14" r="300"/><path id="B1E6Iaok_f_pad-11" d="M-3750-1562.5h7500v3125h-7500z"/><path id="B1E6Iaok_f_pad-12" d="M-3750-875h7500V875h-7500z"/><path id="B1E6Iaok_f_pad-13" d="M-500-500H500V500H-500z"/><circle id="B1E6Iaok_f_pad-14" r="300"/><path id="B1E6Iaok_f_pad-11" d="M-3750-1562.5h7500v3125h-7500z"/><path id="B1E6Iaok_f_pad-12" d="M-3750-875h7500V875h-7500z"/><path id="B1E6Iaok_f_pad-13" d="M-500-500H500V500H-500z"/><circle id="B1E6Iaok_f_pad-14" r="300"/><path id="B1E6Iaok_f_pad-11" d="M-3750-1562.5h7500v3125h-7500z"/><path id="B1E6Iaok_f_pad-12" d="M-3750-875h7500V875h-7500z"/><path id="B1E6Iaok_f_pad-13" d="M-500-500H500V500H-500z"/><circle id="B1E6Iaok_f_pad-14" r="300"/><path id="B1E6Iaok_f_pad-11" d="M-3750-1562.5h7500v3125h-7500z"/><path id="B1E6Iaok_f_pad-12" d="M-3750-875h7500V875h-7500z"/><path id="B1E6Iaok_f_pad-13" d="M-500-500H500V500H-500z"/><circle id="B1E6Iaok_f_pad-14" r="300"/><path id="B1E6Iaok_f_pad-11" d="M-3750-1562.5h7500v3125h-7500z"/><path id="B1E6Iaok_f_pad-12" d="M-3750-875h7500V875h-7500z"/><path id="B1E6Iaok_f_pad-13" d="M-500-500H500V500H-500z"/><circle id="B1E6Iaok_f_pad-14" r="300"/><path id="B1E6Iaok_f_pad-11" d="M-3750-1562.5h7500v3125h-7500z"/><path id="B1E6Iaok_f_pad-12" d="M-3750-875h7500V875h-7500z"/><path id="B1E6Iaok_f_pad-13" d="M-500-500H500V500H-500z"/><circle id="B1E6Iaok_f_pad-14" r="300"/><path id="B1E6Iaok_f_pad-11" d="M-3750-1562.5h7500v3125h-7500z"/><path id="B1E6Iaok_f_pad-12" d="M-3750-875h7500V875h-7500z"/><path id="B1E6Iaok_f_pad-13" d="M-500-500H500V500H-500z"/><circle id="B1E6Iaok_f_pad-14" r="300"/><path id="B1E6Iaok_f_pad-11" d="M-3750-1562.5h7500v3125h-7500z"/><path id="B1E6Iaok_f_pad-12" d="M-3750-875h7500V875h-7500z"/><path id="B1E6Iaok_f_pad-13" d="M-500-500H500V500H-500z"/><circle id="B1E6Iaok_f_pad-14" r="300"/><path id="B1E6Iaok_f_pad-11" d="M-3750-1562.5h7500v3125h-7500z"/><path id="B1E6Iaok_f_pad-12" d="M-3750-875h7500V875h-7500z"/><path id="B1E6Iaok_f_pad-13" d="M-500-500H500V500H-500z"/><circle id="B1E6Iaok_f_pad-14" r="300"/><path id="B1E6Iaok_f_pad-11" d="M-3750-1562.5h7500v3125h-7500z"/><path id="B1E6Iaok_f_pad-12" d="M-3750-875h7500V875h-7500z"/><path id="B1E6Iaok_f_pad-13" d="M-500-500H500V500H-500z"/><circle id="B1E6Iaok_f_pad-14" r="300"/><path id="B1E6Iaok_f_pad-11" d="M-3750-1562.5h7500v3125h-7500z"/><path id="B1E6Iaok_f_pad-12" d="M-3750-875h7500V875h-7500z"/><path id="B1E6Iaok_f_pad-13" d="M-500-500H500V500H-500z"/><circle id="B1E6Iaok_f_pad-14" r="300"/><path id="B1E6Iaok_f_pad-11" d="M-3750-1562.5h7500v3125h-7500z"/><path id="B1E6Iaok_f_pad-12" d="M-3750-875h7500V875h-7500z"/><path id="B1E6Iaok_f_pad-13" d="M-500-500H500V500H-500z"/><circle id="B1E6Iaok_f_pad-14" r="300"/><path id="B1E6Iaok_f_pad-11" d="M-3750-1562.5h7500v3125h-7500z"/><path id="B1E6Iaok_f_pad-12" d="M-3750-875h7500V875h-7500z"/><path id="B1E6Iaok_f_pad-13" d="M-500-500H500V500H-500z"/><circle id="B1E6Iaok_f_pad-14" r="300"/><circle id="rJ_TITj1dG_pad-1" r="6"/><g id="pcb-stackup_top_cu"><path fill="none" stroke-width="100" d="M26750-28020v320m-233.333-200h600l66.666 40 33.334 80v80m0 400l-33.334-80-33.333-40-66.667-40h-200l-66.666 40-33.334 40-33.333 80v120l33.333 80 33.334 40 66.666 40h200l66.667-40 33.333-40 33.334-80v-120m0 640H26750m66.667 0l-33.334 40-33.333 80v120l33.333 80 66.667 40h366.667m-366.667 0l-66.667 40-33.333 80v120l33.333 80 66.667 40h366.667M26750-25180h466.667M26750-25540h366.667l66.666 40 33.334 80v120l-33.334 80-33.333 40m0 400l33.333 40 33.334-40-33.334-40-33.333 40h66.667m0 400H26750m-233.333 0l33.333-40 33.333 40-33.333 40-33.333-40h66.666m633.334 400H26750m66.667 0l-33.334 40-33.333 80v120l33.333 80 66.667 40h366.667m-366.667 0l-66.667 40-33.333 80v120l33.333 80 66.667 40h366.667M26750-21660l466.667 200-466.667 200m-233.333 480v80l33.333 80 33.333 40 66.667 40 133.333 40H26950l133.333-40 66.667-40 33.333-40 33.334-80v-80l-33.334-80-33.333-40-66.667-40-133.333-40h-166.667l-133.333 40-66.667 40-33.333 40-33.333 80m633.333 640l33.333 40 33.334-40-33.334-40-33.333 40h66.667m-700 320v520l266.666-280v120l33.334 80 33.333 40 66.667 40h166.666l66.667-40 33.333-40 33.334-80v-240l-33.334-80-33.333-40"/><use x="22000" y="-27187.5" xlink:href="#B1E6Iaok_f_pad-11"/><use x="22000" y="-19812.5" xlink:href="#B1E6Iaok_f_pad-11"/><use x="22000" y="-24500" xlink:href="#B1E6Iaok_f_pad-12"/><use x="22000" y="-22500" xlink:href="#B1E6Iaok_f_pad-12"/><path d="M18250-25625v-3125l-1000 1000v1125l1000 1000M18250-18262.5v-3125l-1000 1000v1125l1000 1000"/><use x="17750" y="-26125" xlink:href="#B1E6Iaok_f_pad-13"/><use x="17750" y="-20875" xlink:href="#B1E6Iaok_f_pad-13"/><use x="24490" y="-18770" xlink:href="#B1E6Iaok_f_pad-14"/><use x="17750.01" y="-21000" xlink:href="#B1E6Iaok_f_pad-14"/><use x="26202.402" y="-18600" xlink:href="#B1E6Iaok_f_pad-14"/><use x="26797.68" y="-22704.641" xlink:href="#B1E6Iaok_f_pad-14"/><use x="26202.402" y="-25900" xlink:href="#B1E6Iaok_f_pad-14"/><use x="17750" y="-26000" xlink:href="#B1E6Iaok_f_pad-14"/><use x="17900" y="-21925" xlink:href="#B1E6Iaok_f_pad-14"/><use x="17900" y="-23925" xlink:href="#B1E6Iaok_f_pad-14"/><use x="27730" y="-23220" xlink:href="#B1E6Iaok_f_pad-14"/><use x="28500" y="-21790" xlink:href="#B1E6Iaok_f_pad-14"/><use x="28300" y="-26500" xlink:href="#B1E6Iaok_f_pad-14"/><use x="28300" y="-20450" xlink:href="#B1E6Iaok_f_pad-14"/><use x="28500" y="-25230" xlink:href="#B1E6Iaok_f_pad-14"/><path fill="none" stroke-width="600" d="M22000-19812.5h1447.5L24490-18770m-6740-1055h4237.5l12.5 12.5M17750.01-21000v1174.99l-.01.01"/><path fill="none" stroke-width="152.4" d="M17762.5-19812.5l-12.5-12.5m8450 825v397.598l2.402 2.402m0-4100v1897.598L26200-20800v1800m2.402-6900v3200m166.373 0h-166.373m595.278-4.641h-424.264l-4.641 4.641M22000-27187.5h-3902.4l-347.6 347.6m0 415.636V-26000m0-839.9v415.636"/><path fill="none" stroke-width="600" d="M17750-27187.5v1187.5m150 4075h3525l575-575m-4100-1425h3525l575-575m-3675.736 575H17900m1205.38-75l-75 75h-706.116"/><path fill="none" stroke-width="152.4" d="M27730-23220v660l770 770"/><path d="M29206.339-18395.118l12.533-31.333 20-50.001 6.666-10.245 4.123-11.506 21.415-35.693 14.724-44.171 58.954-176.862 39.094-136.829 2.829-5.506 1.001-6.107 27.85-74.266 17.626-61.692 19.384-77.536 17.521-70.086 8.871-79.835 2.505-7.901.185-8.286 19.999-90 .82-1.861.099-2.031 19.125-76.5 19.289-96.444.631-1.52.037-1.644 18.035-81.161 9.099-90.991 2.19-7.181.008-7.504 20-99.999v-.001l18.541-92.703 9.261-92.612 1.8-5.901-.102-6.165 18.908-103.992 9.394-93.942 1.8-5.901-.102-6.165 18.786-103.32 9.337-102.712 9.95-119.4 2.049-7.141-.122-7.427 18.684-102.759 9.389-112.673 5.865-70.377H27637v1860h-260v374.346l131.707 88.004.004.002 41.936 41.937 88.007 131.711h1554.096l13.589-18.118"/><path fill="none" stroke-width="254" d="M29206.339-18395.118l12.533-31.333 20-50.001 6.666-10.245 4.123-11.506 21.415-35.693 14.724-44.171 58.954-176.862 39.094-136.829 2.829-5.506 1.001-6.107 27.85-74.266 17.626-61.692 19.384-77.536 17.521-70.086 8.871-79.835 2.505-7.901.185-8.286 19.999-90 .82-1.861.099-2.031 19.125-76.5 19.289-96.444.631-1.52.037-1.644 18.035-81.161 9.099-90.991 2.19-7.181.008-7.504 20-99.999v-.001l18.541-92.703 9.261-92.612 1.8-5.901-.102-6.165 18.908-103.992 9.394-93.942 1.8-5.901-.102-6.165 18.786-103.32 9.337-102.712 9.95-119.4 2.049-7.141-.122-7.427 18.684-102.759 9.389-112.673 5.865-70.377H27637v1860h-260v374.346l131.707 88.004.004.002 41.936 41.937 88.007 131.711h1554.096l13.589-18.118"/><path d="M29768.448-21411.658l.133-.474-.056-.491 9.964-119.568 9.959-129.467.133-.474-.056-.491 9.964-119.568 9.511-123.643V-22030l1.152-5.794-.704-5.864 19.552-254.176V-22430l1.152-5.794-.704-5.864 9.552-124.176V-22830l1.152-5.794-.704-5.864 9.552-124.176V-23123h-246v473l-3.881 19.512v19.896l-30.448 153.073-30.162 72.817-.002.002-86.707 129.768v.001l-27.866 27.865-27.865 27.866-.003.001-129.768 86.708-72.817 30.162-153.073 30.448h-78.816l-153.073-30.448-72.817-30.162-.002-.002-129.766-86.706-.003-.001-27.865-27.866-27.866-27.865v-.001l-86.708-129.769-.001-.001-30.162-72.817-30.448-153.073v-19.896L28398-22650v-473h-761v1746h2128.782l2.666-34.658"/><path fill="none" stroke-width="254" d="M29768.448-21411.658l.133-.474-.056-.491 9.964-119.568 9.959-129.467.133-.474-.056-.491 9.964-119.568 9.511-123.643V-22030l1.152-5.794-.704-5.864 19.552-254.176V-22430l1.152-5.794-.704-5.864 9.552-124.176V-22830l1.152-5.794-.704-5.864 9.552-124.176V-23123h-246v473l-3.881 19.512v19.896l-30.448 153.073-30.162 72.817-.002.002-86.707 129.768v.001l-27.866 27.865-27.865 27.866-.003.001-129.768 86.708-72.817 30.162-153.073 30.448h-78.816l-153.073-30.448-72.817-30.162-.002-.002-129.766-86.706-.003-.001-27.865-27.866-27.866-27.865v-.001l-86.708-129.769-.001-.001-30.162-72.817-30.448-153.073v-19.896L28398-22650v-473h-761v1746h2128.782l2.666-34.658"/><path d="M29718.525-26197.377l-9.389-112.673-18.684-102.759.122-7.427-2.049-7.141-9.95-119.4-9.337-102.712-18.786-103.32.102-6.165-1.8-5.901-9.394-93.942-18.908-103.992.102-6.165-1.8-5.901-9.261-92.612-18.541-92.703v-.001l-20-99.999-.008-7.504-2.19-7.181-9.099-90.991-18.035-81.161-.037-1.644-.631-1.52-19.289-96.444-19.125-76.5-.099-2.031-.82-1.861-19.999-90-.185-8.286-2.505-7.901-8.871-79.835-17.521-70.086-19.384-77.536-17.626-61.692-27.85-74.266-1.001-6.107-2.829-5.506-39.094-136.829-58.954-176.862-14.724-44.171-21.415-35.693-4.123-11.506-6.666-10.245-19.999-49.998-.001-.002-12.533-31.334-13.589-18.118H27377v396h260v2100h2087.39l-5.865-70.377"/><path fill="none" stroke-width="254" d="M29718.525-26197.377l-9.389-112.673-18.684-102.759.122-7.427-2.049-7.141-9.95-119.4-9.337-102.712-18.786-103.32.102-6.165-1.8-5.901-9.394-93.942-18.908-103.992.102-6.165-1.8-5.901-9.261-92.612-18.541-92.703v-.001l-20-99.999-.008-7.504-2.19-7.181-9.099-90.991-18.035-81.161-.037-1.644-.631-1.52-19.289-96.444-19.125-76.5-.099-2.031-.82-1.861-19.999-90-.185-8.286-2.505-7.901-8.871-79.835-17.521-70.086-19.384-77.536-17.626-61.692-27.85-74.266-1.001-6.107-2.829-5.506-39.094-136.829-58.954-176.862-14.724-44.171-21.415-35.693-4.123-11.506-6.666-10.245-19.999-49.998-.001-.002-12.533-31.334-13.589-18.118H27377v396h260v2100h2087.39l-5.865-70.377"/><path d="M28398-24350l3.881-19.512v-19.896l30.448-153.073 30.162-72.817 86.708-129.768.001-.003 27.866-27.865 27.865-27.866.003-.001 129.766-86.706.002-.002 72.817-30.162 153.073-30.448h78.816l153.073 30.448 72.817 30.162 129.768 86.708.003.001 27.865 27.866 27.866 27.865.001.003 86.707 129.767.001.001 30.162 72.817 30.448 153.073v19.896L29602-24350v473h246v-157.166l-9.552-124.176.704-5.864-1.152-5.794v-264.166l-9.552-124.176.704-5.864-1.152-5.794v-134.166l-19.552-254.176.704-5.864-1.152-5.794v-124.166l-9.511-123.643-9.964-119.568.056-.491-.133-.474-9.959-129.467-9.964-119.568.056-.491-.133-.474-2.666-34.658H27637v1746h761v-473"/><path fill="none" stroke-width="254" d="M28398-24350l3.881-19.512v-19.896l30.448-153.073 30.162-72.817 86.708-129.768.001-.003 27.866-27.865 27.865-27.866.003-.001 129.766-86.706.002-.002 72.817-30.162 153.073-30.448h78.816l153.073 30.448 72.817 30.162 129.768 86.708.003.001 27.865 27.866 27.866 27.865.001.003 86.707 129.767.001.001 30.162 72.817 30.448 153.073v19.896L29602-24350v473h246v-157.166l-9.552-124.176.704-5.864-1.152-5.794v-264.166l-9.552-124.176.704-5.864-1.152-5.794v-134.166l-19.552-254.176.704-5.864-1.152-5.794v-124.166l-9.511-123.643-9.964-119.568.056-.491-.133-.474-9.959-129.467-9.964-119.568.056-.491-.133-.474-2.666-34.658H27637v1746h761v-473"/></g><g id="pcb-stackup_top_sm"><path d="M27750-28500v4500h2500v-4500h-2500"/><path fill="none" stroke-width="100" d="M27750-28500v4500h2500v-4500h-2500"/><path d="M30250-22750v4250h-2500v-4250h2500"/><path fill="none" stroke-width="100" d="M30250-22750v4250h-2500v-4250h2500"/><path d="M18500-25250h7000v1500h-7000v-1500"/><path fill="none" stroke-width="10" d="M18500-25250h7000v1500h-7000v-1500"/><path d="M25500-25750h-7000l-750-750v-1000l750-750h7000v2500"/><path fill="none" stroke-width="10" d="M25500-25750h-7000l-750-750v-1000l750-750h7000v2500"/><path d="M18500-23250h7000v1500h-7000v-1500"/><path fill="none" stroke-width="10" d="M18500-23250h7000v1500h-7000v-1500"/><path d="M25500-18750v-2500h-7000l-750 750v1000l750 750h7000"/><path fill="none" stroke-width="10" d="M25500-18750v-2500h-7000l-750 750v1000l750 750h7000"/></g><g id="pcb-stackup_top_drl1" transform="scale(25.4)"><use x="698.8" y="-1023.6" xlink:href="#rJ_TITj1dG_pad-1"/><use x="698.8" y="-826.8" xlink:href="#rJ_TITj1dG_pad-1"/><use x="704.7" y="-863.2" xlink:href="#rJ_TITj1dG_pad-1"/><use x="704.7" y="-941.9" xlink:href="#rJ_TITj1dG_pad-1"/><use x="964.2" y="-739" xlink:href="#rJ_TITj1dG_pad-1"/><use x="1031.6" y="-732.3" xlink:href="#rJ_TITj1dG_pad-1"/><use x="1031.6" y="-1019.7" xlink:href="#rJ_TITj1dG_pad-1"/><use x="1055" y="-893.9" xlink:href="#rJ_TITj1dG_pad-1"/><use x="1091.7" y="-914.2" xlink:href="#rJ_TITj1dG_pad-1"/><use x="1114.2" y="-805.1" xlink:href="#rJ_TITj1dG_pad-1"/><use x="1114.2" y="-1043.3" xlink:href="#rJ_TITj1dG_pad-1"/><use x="1122" y="-857.9" xlink:href="#rJ_TITj1dG_pad-1"/><use x="1122" y="-993.3" xlink:href="#rJ_TITj1dG_pad-1"/></g><clipPath id="pcb-stackup_top_out"><path fill="none" stroke-width="50" d="M26100-29000a600 600 0 0 0 1200 0h1700l50 10 50 20 50 30 50 50 40 50 30 40 40 80 30 40 20 50 20 50 30 50 20 60 20 60 20 60 20 60 20 70 20 70 30 80 20 70 20 80 20 80 10 90 20 90 20 80 20 100 20 90 10 100 20 100 20 100 10 100 20 110 10 100 20 110 10 110 10 120 20 110 10 120 10 120 10 120 10 120 10 120 10 130 10 120 10 130 10 120 10 130v130l10 130 10 130v140l10 130v270l10 130v1080l-10 130v270l-10 130v140l-10 130-10 130v130l-10 130-10 120-10 130-10 120-10 130-10 120-10 120-10 120-10 120-10 120-20 110-10 120-10 110-20 110-10 100-20 110-10 100-20 100-20 100-10 100-20 90-20 100-20 80-20 90-10 90-20 80-20 80-20 70-30 80-20 70-20 70-20 60-20 60-20 60-20 60-30 50-20 50-20 50-30 40-40 80-30 40-40 50-50 50-50 30-50 20-50 10h-1400a600 600 0 0 0-1200 0h-8900a500 500 0 0 1-500-500v-10000a500 500 0 0 1 500-500h8600m3300 6350v-1700a400 400 0 0 0-800 0v1700a400 400 0 0 0 800 0"/></clipPath><mask id="pcb-stackup_top_mech-mask"><g stroke="#000"><path fill="#fff" d="M17000-29000h13000v11000H17000z"/><use xlink:href="#pcb-stackup_top_drl1"/></g></mask><mask id="pcb-stackup_top_cf-mask"><g fill="#fff" stroke="#fff"><use xlink:href="#pcb-stackup_top_sm"/></g></mask><mask id="pcb-stackup_top_sm-mask"><g stroke="#000"><path fill="#fff" d="M17000-29000h13000v11000H17000z"/><use xlink:href="#pcb-stackup_top_sm"/></g></mask></defs><g><g mask="url(#pcb-stackup_top_mech-mask)" clip-path="url(#pcb-stackup_top_out)" transform="matrix(1 0 0 -1 0 -47000)"><path fill="currentColor" d="M17000-29000h13000v11000H17000z" class="pcb-stackup_fr4"/><use fill="currentColor" stroke="currentColor" xlink:href="#pcb-stackup_top_cu" class="pcb-stackup_cu"/><use fill="currentColor" stroke="currentColor" xlink:href="#pcb-stackup_top_cu" class="pcb-stackup_cf" mask="url(#pcb-stackup_top_cf-mask)"/><g mask="url(#pcb-stackup_top_sm-mask)"><path fill="currentColor" d="M17000-29000h13000v11000H17000z" class="pcb-stackup_sm"/><use fill="currentColor" stroke="currentColor" xlink:href="#pcb-stackup_top_ss" class="pcb-stackup_ss"/></g><use fill="currentColor" stroke="currentColor" xlink:href="#pcb-stackup_top_sp" class="pcb-stackup_sp"/></g></g></svg>